<svg width="746" height="124" fill="none" xmlns="http://www.w3.org/2000/svg"><path d="m9.26 27.012 716.858-9.744 10.774 16.236-26.651.362L24.385 43.19 9.26 27.012Z" fill="#8FFE09" fill-opacity=".2"/><path d="M33.652 50.959 726.7 17.176l9.656 15.859-25.995.964L48.097 67.206 33.652 50.96Z" fill="#8FFE09" fill-opacity=".2"/><path d="m33.608 51.377 699.354-9.578 10.511 16.238-26 .357-669.11 9.163-14.755-16.18Z" fill="#8FFE09" fill-opacity=".2"/><path d="m1.963 73.533 730.711-31.56 10.632 15.995-26.114.967L17.012 89.75 1.963 73.533Z" fill="#8FFE09" fill-opacity=".2"/><path d="m2.709 73.175 728.934-5.682 10.772 16.3-27.1.211-697.41 5.436L2.709 73.175Z" fill="#8FFE09" fill-opacity=".2"/><path d="m169.264 95.638 561.901-27.857 10.966 15.984-22.291.822-537.625 26.819-12.951-15.768Z" fill="#8FFE09" fill-opacity=".2"/><path d="m169.26 95.52 474.837-40.528 13.03 14.026-17.317 1.74-457.409 40.666-13.141-15.905Z" fill="#8FFE09" fill-opacity=".2"/></svg>