<svg width="63" height="64" fill="none" xmlns="http://www.w3.org/2000/svg"><path d="M.504 60.432c2.132 1.017 4.252.76 6.464.43 2.509-.377 4.623-1.064 6.614-2.578 3.616-2.75 4.973-8.093 5.998-12.47 1.08-4.612 2.416-9.055 4.29-13.368 1.567-3.604 3.686-6.648 6.011-9.726 2.561-3.39 5.155-6.707 8.269-9.576C42.539 9.1 47.374 5.69 53.317 4.458c2.125-.44 4.363-.636 6.331-1.562 1.007-.474.882-.65-.124-.904-1.766-.447-3.508-.579-5.289-.853-.649-.1-2.552-.693-1.926-.465 2.354.86 4.862 1.207 7.275 1.783.709.17 1.536.194 2.175.35.16.04-2.17 2.422-2.43 2.701-1.607 1.722-2.997 4.254-3.351 6.695-.012.082-.284.907-.303.68-.08-.942.42-2.008.801-2.798.598-1.238 1.347-2.528 2.077-3.682.521-.825 1.403-1.992 1.484-3.018.035-.45-1.335-.328-1.635-.344-1.288-.07-2.75-.31-3.97-.853-.914-.407-2.025-1.323-3.002-1.49-.713-.121 1.293.762 1.995.961 1.294.367 2.632.459 3.939.754 1.034.234 2.104.272 1.296 1.396-.641.893-1.227 2.404-1.461 3.495-.469 2.18-1.508 3.53-2.712 5.301-.472.695.342-.293.408-.4.796-1.292 1.524-2.626 2.286-3.94.403-.696.464-1.247.567-2.067.147-1.174-2.57-.202-3.076.05-.676.336-1.454.26-2.165.448-1.6.422-3.16.766-4.744 1.289-2.253.743-4.898 2.344-6.478 4.146-1.19 1.356-2.818 2.489-4.204 3.626-1.758 1.442-3.435 3.062-5.119 4.599-1.096 1-2.707 2.195-3.451 3.528-.785 1.404-1.26 3.003-1.972 4.455-.607 1.24-.872 2.613-1.666 3.761-.745 1.079-1.316 2.318-1.976 3.46-.639 1.107-1.466 2.25-1.805 3.517-.328 1.228-.445 2.5-.684 3.742-.57 2.959-1.64 5.922-3.47 8.215-1.234 1.546-2.793 2.807-4.138 4.255-1.38 1.486-2.785 2.96-4.12 4.484-1.705 1.945-3.777 3.69-6.536 3.463-.361-.03-.737-.058-1.095-.134-.082-.018.988.123 1.185.135 1.986.127 3.708-.104 5.342-1.177 1.579-1.037 1.994-3.317 2.852-4.901 1.345-2.48 2.786-4.778 4.274-7.18.91-1.47 2.054-2.93 2.753-4.524a151.878 151.878 0 0 0 2.319-5.56c1.773-4.527 4.779-8.28 6.738-12.704 1.453-3.28 3.894-5.822 6.067-8.586 1.018-1.295 2.364-2.34 3.518-3.512 1.753-1.779 3.853-3.216 5.878-4.653 2.454-1.742 4.933-3.444 7.657-4.752 1.055-.506 2.402-1.106 3.568-1.273 1.815-.262 3.71-.566 5.456-.988" stroke="#222" stroke-width=".7" stroke-linecap="round"/></svg>