<svg width="1079" height="405" fill="none" xmlns="http://www.w3.org/2000/svg"><path d="M14.819 1c0 37.953-30.91 112.36-.274 188.636 17.3 43.076 50.618 61.063 100.977 56.06 64.543-6.413 87.252-63.065 107.695-82.585 37.894-29.515 53.653-35.389 89.888-29.515 36.235 5.875 57.165 29.515 71.124 57.168 5.484 17.978 19.041 54.183 23.431 63.421 6.434 13.54 22.761 31.446 32.404 42.947 17.782 21.206 60.518 30.156 82.258 47.441 84.251 15.48 177.284-30.883 263.722-61.923 79.266-28.465 154.731-79.361 242.286-36.954 69.79 33.804 50.85 91.386 33.54 106.867-30.41 27.2-145.211 22.417-148.701 50.437" stroke="#fff" stroke-width="2" stroke-linecap="square"/></svg>