<svg width="143" height="70" fill="none" xmlns="http://www.w3.org/2000/svg"><path d="M17.835 19.425c.87-.314 1.268-.466 1.198-.455.703-.109 1.182.375 1.439 1.45.059 1.196.247 2.067.565 2.611.238.719.538 1.671.9 2.856.147.481.265 1.012.355 1.591.1.65.176 1.547.227 2.69.069 1.375.122 2.302.16 2.782.053.46.061 1.385.025 2.776-.056 1.501-.134 2.395-.233 2.68-.185.316-.404.881-.656 1.694-.104.843-.562 1.948-1.376 3.315-.567.754-1.407 1.954-2.52 3.601-.552.967-1.315 1.787-2.29 2.459-.976.673-1.947 1.084-2.913 1.233-1.897.293-3.026-.432-3.386-2.175-.01-.07-.146-.364-.406-.882-.262-.535-.42-.969-.471-1.303-.09-.58.12-.972.628-1.176.17-.063.567.299 1.193 1.084.342.468.693.936 1.053 1.402.085-.031.217-.052.395-.061.152.048.463.198.933.449.334.182.607.257.817.224.281-.043.592-.244.932-.603.187-.19.797-.725 1.83-1.605.62-.527 1.196-1.282 1.728-2.264.072-.46.333-1.103.78-1.928.597-1.496.908-2.335.933-2.519.183-1.377.333-2.849.451-4.414.038-.456.009-.99-.086-1.606-.18-1.16-.691-2.897-1.535-5.213-.192-.546-.473-1.375-.843-2.487-.274 1.14-.716 2.818-1.326 5.035-1.395 4.245-3.135 7.186-5.22 8.821-.322.248-.64.396-.957.445-.86.133-1.687-.558-2.479-2.072-.277-.515-.749-1.701-1.414-3.56a328.33 328.33 0 0 0-.897-3.881c-.526-2.24-.903-3.341-1.132-3.306-.088.014-.16.187-.216.52-.035.239-.158.375-.369.407-.422.065-.948-.195-1.578-.781-.633-.604-.982-1.233-1.048-1.889-.02-1.994.125-3.266.435-3.818.104-.142.28-.232.525-.27.51-.079 1.095.038 1.754.35.657.293 1.067.671 1.228 1.132.828 1.167 1.334 2.348 1.52 3.543 1.208 7.818 2.647 11.598 4.316 11.34.58-.09 1.173-.73 1.78-1.922 2.601-5.169 4.146-10.3 4.636-15.396a7.95 7.95 0 0 0 .615-.904ZM30.604 45.89c.916-.358 1.857-1.25 2.824-2.676.262-.4.733-1.598 1.414-3.592.86-2.471 1.209-4.225 1.049-5.262-.114-.738-.497-1.056-1.147-.956-.386.06-.883.28-1.49.662-1.684 1.088-2.991 3.8-3.922 8.135-.084.39-.062.999.066 1.825.226 1.458.628 2.08 1.206 1.864Zm3.39 9.19c1.018-4.007 1.648-6.794 1.892-8.36.047-.278.061-.478.042-.6-.054-.352-.343-.182-.865.51a96.49 96.49 0 0 0-1.11 1.548c.019.123-.13.326-.446.61-.316.282-.462.502-.437.66.046.299-.063.64-.328 1.022-.366.543-.582.89-.648 1.045-1.434 3.873-2.116 7.37-2.047 10.49.244.303.391.614.44.93.37-.057 1.022-1.3 1.96-3.73.525-1.377 1.04-2.752 1.548-4.125Zm1.708.221-2.62 6.612c-.953 2.45-1.974 3.759-3.063 3.927-1.036.16-1.685-.602-1.946-2.29a13.36 13.36 0 0 1 .28-5.52c1.195-4.484 2.483-7.786 3.864-9.907 2.023-2.507 3.374-4.011 4.052-4.512.157-.96.218-1.554.183-1.782-.008-.053-.031-.085-.07-.098-.05.026-.118.163-.206.41-.205.535-.531 1.099-.98 1.69a107.6 107.6 0 0 1-1.282 1.655c-.355.613-.899 1.164-1.633 1.656-.715.488-1.442.79-2.18.904-1.406.217-2.254-.326-2.546-1.63-.44-2.037-.27-4.537.513-7.5.205-.77.625-1.662 1.26-2.678.588-.846 1.166-1.7 1.735-2.561.729-1.103 2.095-1.809 4.098-2.118.878-.136 1.595-.094 2.15.126.28.173.533.709.762 1.609l.387 1.802c.207.76.3 1.303.279 1.63-.122 1.89-.14 3.107-.056 3.651.084.545.24.8.469.764 1.035-.753 2.062-1.209 3.08-1.367.44-.067.82-.045 1.144.067-.01.163-.812.683-2.403 1.558-1.574.873-2.404 1.56-2.488 2.058-.101.861-.17 1.52-.208 1.975-.08.876-.327 2.011-.741 3.407-.596 1.963-.926 3.084-.991 3.364-.381 1.606-.662 2.639-.843 3.099Zm23.56-10.55c-.336.033-.584.054-.745.06a12.308 12.308 0 0 1-.962-.282c-.99-.117-1.823-.447-2.5-.99a241.52 241.52 0 0 1-1.294-1.04 8.338 8.338 0 0 1-.388-.94 5.386 5.386 0 0 0-.498-.597 10.63 10.63 0 0 1-.396-.991l-.233-.639c-.053.009-.152.123-.298.343-.316.517-.63 1.042-.944 1.576-.372.616-.73 1.094-1.073 1.435-.124.127-.323.41-.598.848-.259.417-.477.694-.654.83a6.673 6.673 0 0 1-2.916 1.206 3.104 3.104 0 0 1-.75.035c-.672-.04-1.115-.754-1.33-2.142-.073-.474-.084-1.066-.032-1.776.033-.599.077-1.19.13-1.774.03-1.318.501-2.929 1.412-4.833.219-.447.43-.83.632-1.15.341-.466.613-.805.814-1.016.306-.461.531-.81.674-1.049.14-.147.249-.254.328-.32.78-1.362 1.96-2.165 3.54-2.41 1.16-.179 1.999-.048 2.517.394.226.18.416 1.123.572 2.825.013.088.01.242-.01.46-.003.217.004.378.02.483.048.19.049.487.003.89-.045.403-.027.697.056.882-.222 1.24-.276 2.228-.162 2.966.016.106.012.313-.012.623-.027.292-.01.514.05.667l.55 1.29c.346.847 1.244 1.652 2.694 2.417.73.301 1.283.504 1.659.608.136.068.237.197.302.385.086.202.08.347-.014.433a.396.396 0 0 0-.143.292Zm-7.314-9.609c.058-.44.054-.7-.012-.78.35-.756.486-1.39.408-1.899-.098-.632-.518-1.08-1.26-1.343-.046-.065-.122-.089-.228-.073-.123.02-.341.116-.656.29-.297.173-.5.258-.608.257-.436.553-.698.836-.786.85l-.95 1.712c-.785 1.2-1.274 2.113-1.465 2.736-.436 1.488-.678 2.362-.728 2.622-.196.947-.2 1.848-.014 2.7.06.279.111.55.152.813.087.329.26.455.517.38 1.511-.468 2.736-1.8 3.673-3.996.202.023.486-.408.853-1.292a56.61 56.61 0 0 1 .65-1.557c.079-.067.134-.12.163-.16l.291-1.26Zm14.925 7.433c-.797-1.55-1.308-3.053-1.534-4.512a11.89 11.89 0 0 1-.135-1.57 15.506 15.506 0 0 0-.039-.777c-.058-.027-.123.019-.195.138a2.42 2.42 0 0 0-.143.292c-.318.157-.562.32-.734.49-.28.278-1.363.841-3.247 1.69l-.628.124c-.299.047-.882-.178-1.75-.673l-.706-.728a.501.501 0 0 0-.18-.296c-.258-.733-.352-1.222-.282-1.467.034-.131.024-.66-.03-1.588-.006-.16.085-.561.273-1.202a47.29 47.29 0 0 1 .77-2.52c.05-.26.085-.563.104-.907l.33-.834c.45-.231.69-.358.723-.381.208-.05.444.02.708.214.162.119.244.358.245.718.014.321-.03.553-.135.695-.218.681-.479 1.73-.782 3.143-.121.379-.296.936-.524 1.673.022.14.151.687.389 1.64.048.082.353.305.913.668.589.09 1.056.026 1.4-.19.14-.147.395-.357.766-.63.35-.18.708-.37 1.072-.57.465-.253.743-.494.833-.723.218-.106.48-.326.788-.662.034-.131.095-.32.182-.568.01-.055.033-.14.069-.253l.21-3.352a7.98 7.98 0 0 0 .121-.612c.029-.166.064-.406.105-.718.112-.09.127-.226.045-.411l.1-.394c.093-.104.184-.271.274-.5l.618-.366.866.19.217.182c.058.26.04.66-.058 1.196-.1.52-.111.908-.035 1.166-.038.456-.107 1.23-.207 2.326-.04.096-.08.237-.124.424-.037.455-.168 1.24-.391 2.354a8.667 8.667 0 0 0-.087.66c-.052.476-.04.96.036 1.452.187 1.212.716 2.426 1.588 3.64.097.165.156.309.175.432.046.299-.126.586-.515.862a55.2 55.2 0 0 0-1.181.911 1.411 1.411 0 0 0-.278.124Zm16.385-10.359c.076 1.77.16 2.962.256 3.577.128.825.327 1.532.598 2.12.057.135.176.323.357.565.178.224.277.398.296.52.033.212-.097.42-.388.628l-.738.465c.053-.009-.185-.152-.714-.43a23.545 23.545 0 0 0-.727-1.56 15.92 15.92 0 0 1-.256-1.31c-.123-.79-.208-2.387-.256-4.79a6.75 6.75 0 0 0 .028-1.57c-.175-.08-.399.215-.673.887-.198.462-.39.915-.573 1.357-.244.397-.421.82-.532 1.27-1.08 2.2-2.006 3.835-2.776 4.908-.25.128-.577.395-.982.8-.713.74-1.412 1.162-2.098 1.268a6.284 6.284 0 0 1-.772.066c-.29-.01-.577-.127-.864-.353a39.405 39.405 0 0 0-.781-.688c-.252-.231-.42-.62-.504-1.164-.047-.424-.086-.85-.116-1.277-.16-1.378-.075-2.983.253-4.815.329-1.832.81-3.31 1.447-4.433-.016-1.383.21-2.183.68-2.4.221-.087.47-.054.745.101.293.153.471.431.534.835.098.633-.162 1.456-.779 2.468-.177.37-.411 1.296-.703 2.78-.299 1.558-.423 2.557-.373 3 .038.245.04.668.007 1.267-.016.596 0 1.043.046 1.342.09.58.327 1.01.712 1.293.806.09 1.4-.028 1.78-.357.685-.573 1.344-1.43 1.977-2.572.497-.976.983-1.96 1.46-2.95a.905.905 0 0 1 .087-.311 812.237 812.237 0 0 0 2.398-5.255.338.338 0 0 0 .055-.17 4.05 4.05 0 0 0 .732-2.245l.026-.004a3.91 3.91 0 0 0 .209-.572c.23-.252.478-.398.741-.439.352-.054.712.124 1.081.535a27.108 27.108 0 0 1-.41 1.358c-.316.985-.491 2.352-.526 4.102.023.968.035 1.686.036 2.153Zm11.123 5.539c.044.173.017.402-.083.687l-1.015.94-.197-.05-1.699-.17-1.23-1.671.146-.805.435-.5 2.129-.194c.791.58 1.296 1.167 1.514 1.763ZM92.01 7.766l.342 1.863c-.068 1.072-.184 3.23-.348 6.476.013.43.034 1.263.063 2.5.002.827.024 2.478.065 4.954.09.58.085 1.66-.012 3.24-.087 1.417.086 2.532.517 3.347l.13.142-.075 2.305-.786.149-.364-.43-.892.165a1.478 1.478 0 0 1-.328-.38c-.333-.525-.487-1.284-.46-2.277.034-1.409.022-2.297-.035-2.666-.06-1.664-.046-4.14.039-7.427-.19-.42-.24-1.32-.148-2.702.09-1.507.083-2.486-.023-2.938.044-.186.115-.89.214-2.11.068-.839.225-1.51.47-2.016l.125-1.638.502-.59.722.13a.783.783 0 0 0 .282-.097Zm20.19 12.69-.027.004-.698-.674.116-.477.478-.398a.762.762 0 0 1 .107-.178c.55-.517 1.75-1.071 3.601-1.663l3.829-1.24c.325.004 1.099-.107 2.323-.332 1.017-.175 1.745-.18 2.184-.014l.02.132c-.031.148-.11.332-.238.55-.269.005-.49.147-.663.426a3.898 3.898 0 0 1-.326.509c-.146-.014-.377.004-.693.053-.083.049-.492.076-1.229.082-.233-.108-.522-.117-.868-.028l-.879.244c-.209.05-.554.203-1.036.457-.138.04-.523.225-1.155.557-.433.228-.845.355-1.237.38-.139.147-.411.306-.816.477-.406.17-.685.34-.839.507l-.596-.015-1.011.965a5.506 5.506 0 0 0-.347-.324Zm4.283 7.11-.422.064c-.429.48-.986.774-1.672.88a2.724 2.724 0 0 0-.261-.122c-.482-.321-.763-.629-.844-.922l2.113-1.514c.042-.078.07-.128.085-.148l.298.008 1.792-.979a9.98 9.98 0 0 0 1.169-.288 9.937 9.937 0 0 1 1.17-.29c.305-.118 1.273-.259 2.903-.421a9.28 9.28 0 0 0 .975-.15.765.765 0 0 0 .355.025c.123-.019.25-.066.383-.14.075.024.202.086.379.184.004.143-.139.381-.429.714-.077.084-.585.289-1.524.614-.942.307-1.527.479-1.756.514-.984.152-1.594.274-1.832.364-.952.363-1.869.829-2.752 1.397l-.13.21Zm12.901 8.879.121-.613.213-.195.044-1.113.456-.367 1.221-1.35c.15-.31.565-.887 1.244-1.73.06-.189.368-.758.923-1.707.394-.709.634-1.313.718-1.811.516-1.321.772-3.034.771-5.139.07-.478.068-.955-.005-1.429-.057-.369-.432-1.453-1.124-3.253a7.32 7.32 0 0 1-.421-1.5c-.299-.421-.649-1.177-1.052-2.266-1.021-1.605-1.76-2.714-2.214-3.327-.955-1.292-1.859-2.25-2.711-2.873-.609-.446-1.601-.814-2.977-1.105-1.134-.238-1.894-.615-2.28-1.131l-.15-.274.119-.45c.172-.17.295-.36.371-.57l.306-.29c.437-.428.696-.791.775-1.091.085-.032.196-.076.331-.133.125-.235.297-.342.516-.322.929.072 1.93.205 3.003.399l1.511.872 1.916 1.917c.097.399.364.726.799.983.037.12.202.373.496.76.365.267.987 1.439 1.866 3.516.446.327.852.92 1.219 1.78.424.997.757 1.638.999 1.924l1.35 4.891c-.097.303-.106.88-.029 1.732-.093.446-.172 1.097-.237 1.952-.05.727-.148 1.255-.295 1.584l-.397.925c-.078.192-.223.826-.434 1.902-.287.476-.701 1.34-1.245 2.594-.243.757-.742 1.662-1.496 2.714-.975 1.374-1.558 2.255-1.75 2.645l-.391.438c-.12.037-.301.146-.543.327-.422.065-.746.178-.973.34l-.564-.156Z" fill="#FC4545" fill-opacity=".58"/><path d="m17.835 19.425-.17-.47-.17.061-.091.157.431.252Zm2.637.995.5-.024-.003-.047-.01-.045-.487.116Zm.565 2.611.475-.156-.016-.05-.027-.046-.432.252Zm.9 2.856.48-.145-.001-.001-.478.146Zm.582 4.282-.5.022v.003l.5-.025Zm.16 2.781-.498.04v.009l.002.008.496-.057Zm.025 2.776.5.018v-.005l-.5-.013Zm-.233 2.68.431.252.024-.041.017-.046-.473-.165Zm-.656 1.694-.478-.149-.013.043-.005.045.496.06Zm-1.376 3.315.4.301.016-.022.014-.023-.43-.256Zm-2.52 3.601-.414-.28-.01.016-.01.016.434.248Zm-2.29 2.459-.284-.412.283.412Zm-6.299-.942-.494.076.002.013.003.012.49-.1Zm-.406-.882-.449.22.002.005.447-.224Zm.157-2.48-.172-.469-.008.003-.007.003.187.464Zm1.193 1.085.403-.295-.006-.009-.006-.008-.391.312Zm1.053 1.402-.396.305.224.29.344-.126-.172-.47Zm.395-.061.153-.477-.088-.028-.092.005.027.5Zm.933.449.24-.439-.005-.002-.235.441Zm1.75-.379-.358-.349-.005.005.362.344Zm1.829-1.605-.324-.38.324.38Zm1.728-2.264.44.239.04-.076.014-.085-.494-.078Zm.78-1.928.44.239.014-.026.011-.028-.464-.185Zm.933-2.519.496.069v-.003l-.496-.066Zm.451-4.414-.498-.041v.003l.498.038Zm-1.62-6.82-.473.167.002.005.47-.171Zm-.844-2.486.474-.158-.552-1.66-.408 1.701.486.117Zm-1.326 5.035.475.156.003-.011.004-.012-.482-.133Zm-5.22 8.821.305.396.003-.002-.308-.394ZM7.68 37.86l.443-.232-.003-.005-.44.237ZM6.266 34.3l-.488.11.007.03.01.03.471-.17Zm-.896-3.88-.487.114v.002l.487-.116Zm-1.348-2.787-.493-.083-.002.011.495.072Zm-1.947-.373-.345.362.005.004.34-.366Zm-1.049-1.89-.5.005v.023l.003.022.497-.05Zm.435-3.818-.403-.295-.018.024-.014.026.435.245Zm2.28.08-.214.452.01.004.203-.457Zm1.227 1.132-.472.165.023.067.041.057.408-.29Zm7.617 12.961.445.227.001-.002-.446-.225ZM17.22 20.33l-.393-.309-.09.116-.015.146.498.047Zm.785-.434c.435-.157.755-.275.959-.352.1-.038.18-.07.23-.091.013-.006.065-.027.11-.056.008-.005.058-.035.107-.09a.503.503 0 0 0-.054-.724.5.5 0 0 0-.4-.106l.153.988a.454.454 0 0 1-.152-.002.497.497 0 0 1-.288-.827.454.454 0 0 1 .1-.084c.035-.022.06-.03.031-.019-.03.014-.092.038-.192.076-.196.074-.51.19-.944.347l.34.94Zm1.105-.431c.201-.031.334.017.455.139.146.148.302.434.42.933l.973-.232c-.137-.577-.35-1.07-.683-1.405a1.47 1.47 0 0 0-1.318-.423l.153.988Zm.862.98c.06 1.217.253 2.188.634 2.84l.863-.505c-.255-.437-.44-1.208-.498-2.383l-.999.049Zm.59 2.744c.236.714.535 1.662.898 2.846l.956-.293a148.32 148.32 0 0 0-.904-2.866l-.95.313Zm.897 2.845c.139.455.252.962.339 1.522l.988-.153c-.093-.6-.216-1.153-.37-1.66l-.957.29Zm.339 1.522c.096.623.17 1.5.221 2.636l1-.045c-.052-1.15-.128-2.068-.233-2.744l-.988.153Zm.222 2.639c.068 1.373.122 2.308.16 2.796l.998-.08c-.038-.47-.091-1.39-.16-2.766l-.998.05Zm.163 2.814c.048.418.058 1.307.02 2.704l1 .027c.037-1.385.03-2.346-.027-2.846l-.993.114Zm.021 2.7a37.46 37.46 0 0 1-.099 1.77c-.04.458-.08.69-.106.763l.944.33c.073-.211.12-.57.159-1.006.04-.458.073-1.066.101-1.82l-.999-.038Zm-.165 2.446c-.217.37-.449.983-.702 1.797l.956.297c.251-.811.456-1.327.61-1.59l-.864-.504Zm-.72 1.885c-.09.738-.506 1.77-1.31 3.12l.86.512c.823-1.383 1.326-2.562 1.442-3.51l-.992-.122Zm-1.28 3.076c-.575.764-1.42 1.973-2.534 3.621l.829.56c1.112-1.646 1.945-2.837 2.504-3.58l-.799-.601Zm-2.554 3.653c-.512.898-1.223 1.663-2.14 2.295l.567.824c1.033-.713 1.85-1.587 2.442-2.623l-.869-.496Zm-2.14 2.295c-.927.64-1.828 1.015-2.706 1.15l.153.99c1.055-.164 2.096-.61 3.12-1.316l-.567-.824Zm-2.706 1.15c-.879.137-1.497.023-1.922-.25-.418-.268-.735-.746-.897-1.53l-.98.201c.198.959.625 1.714 1.336 2.171.704.452 1.598.554 2.616.397l-.152-.988Zm-2.814-1.756a.972.972 0 0 0-.062-.205 4.568 4.568 0 0 0-.088-.201 21.71 21.71 0 0 0-.304-.624l-.894.449c.13.257.225.454.29.593.032.07.054.121.068.156.02.051.009.032.001-.016l.989-.152Zm-.452-1.026c-.254-.518-.386-.9-.426-1.16l-.988.154c.063.408.246.895.516 1.447l.898-.44Zm-.426-1.16c-.034-.216-.003-.342.037-.416.037-.07.112-.15.283-.22l-.373-.927c-.337.136-.62.354-.793.676-.17.318-.198.678-.142 1.04l.988-.152Zm.305-.63c-.162.06-.27-.013-.234.006a.903.903 0 0 1 .152.12c.169.152.405.414.712.8l.783-.623c-.318-.399-.593-.71-.822-.918a1.805 1.805 0 0 0-.36-.264c-.105-.056-.327-.15-.574-.06l.343.94Zm.618.91c.345.472.699.943 1.061 1.412l.792-.61a64.573 64.573 0 0 1-1.046-1.392l-.807.59Zm1.629 1.576.016-.004a1.887 1.887 0 0 1 .234-.027l-.054-.999a1.9 1.9 0 0 0-.54.091l.344.94Zm.07-.054c.1.032.37.158.85.414l.471-.882c-.46-.246-.813-.42-1.015-.484l-.306.952Zm.847.412c.363.198.757.338 1.133.28l-.153-.989c-.046.007-.197-.003-.502-.169l-.478.878Zm1.133.28c.445-.07.852-.368 1.218-.753l-.725-.689c-.315.331-.53.435-.646.453l.153.988Zm1.213-.748c.166-.17.753-.687 1.796-1.574l-.648-.761c-1.024.871-1.656 1.425-1.863 1.636l.715.699Zm1.796-1.574c.68-.58 1.292-1.39 1.843-2.406l-.879-.477c-.513.947-1.053 1.646-1.612 2.122l.648.761Zm1.898-2.567c.058-.372.283-.953.726-1.767l-.879-.478c-.453.835-.749 1.54-.835 2.09l.988.155Zm.751-1.821c.299-.749.527-1.337.685-1.763.079-.212.14-.388.186-.524.04-.122.08-.25.093-.348l-.99-.138c0-.005-.01.04-.053.174-.04.12-.097.282-.174.489-.153.414-.378.993-.676 1.74l.93.37Zm.964-2.638c.184-1.388.335-2.869.454-4.443l-.997-.075a77.83 77.83 0 0 1-.448 4.386l.991.132Zm.454-4.439c.041-.506.008-1.082-.091-1.723l-.988.153c.09.589.115 1.083.082 1.488l.997.082Zm-.091-1.723c-.187-1.211-.713-2.987-1.56-5.308l-.939.342c.842 2.311 1.34 4.01 1.51 5.119l.989-.153Zm-1.557-5.303a154.58 154.58 0 0 1-.84-2.479l-.95.316c.37 1.112.653 1.945.846 2.495l.944-.332Zm-1.801-2.438a173.81 173.81 0 0 1-1.322 5.02l.964.265a177.09 177.09 0 0 0 1.33-5.051l-.972-.234ZM15.86 30.51c-1.383 4.209-3.083 7.038-5.054 8.584l.617.787c2.2-1.726 3.98-4.778 5.387-9.059l-.95-.312Zm-5.05 8.581c-.273.21-.515.314-.728.347l.152.988c.42-.065.815-.257 1.186-.543l-.61-.792Zm-.728.347c-.256.04-.538-.031-.869-.308-.342-.286-.71-.772-1.09-1.502l-.887.464c.41.785.852 1.4 1.336 1.806.495.413 1.057.622 1.662.528l-.152-.988ZM8.12 37.623c-.256-.475-.715-1.624-1.383-3.49l-.942.336c.662 1.85 1.146 3.074 1.445 3.628l.88-.474ZM6.754 34.19a355.93 355.93 0 0 0-.898-3.888l-.973.232c.308 1.299.607 2.59.895 3.875l.976-.219Zm-.898-3.886c-.264-1.124-.495-1.979-.691-2.554a4.3 4.3 0 0 0-.294-.698 1.116 1.116 0 0 0-.2-.265.61.61 0 0 0-.51-.169l.153.988a.393.393 0 0 1-.326-.089c-.02-.019-.014-.02.014.029.052.092.125.26.216.528.18.527.402 1.343.664 2.458l.974-.228ZM4.16 26.619a.605.605 0 0 0-.366.209.871.871 0 0 0-.14.233 2.309 2.309 0 0 0-.127.488l.986.167c.012-.073.025-.133.037-.18a.7.7 0 0 1 .028-.09c.007-.018.002.001-.025.033a.397.397 0 0 1-.24.128l-.153-.988Zm-.635.941c-.008.053-.018.044.005.018a.132.132 0 0 1 .037-.028c.011-.006.016-.005.008-.004l.152.988c.2-.03.394-.118.545-.285.146-.162.215-.357.242-.544l-.989-.145Zm.05-.014c-.078.012-.208 0-.413-.1-.204-.102-.454-.28-.748-.553l-.681.732c.335.312.664.558.985.717.322.159.665.245 1.01.192l-.153-.988Zm-1.157-.65c-.575-.548-.845-1.073-.895-1.576l-.995.1c.08.808.51 1.542 1.2 2.2l.69-.723Zm-.893-1.531c-.01-.986.021-1.78.09-2.388.072-.624.178-.996.281-1.18l-.871-.49c-.207.367-.329.908-.403 1.557-.076.665-.107 1.504-.096 2.511l1-.01Zm.339-3.518s.008-.01.034-.024a.546.546 0 0 1 .164-.047l-.153-.988c-.322.05-.642.182-.852.469l.807.59Zm.198-.07c.377-.06.858.02 1.464.306l.427-.904c-.714-.337-1.403-.49-2.044-.391l.153.988Zm1.473.31c.592.265.862.562.96.842l.944-.33c-.225-.642-.773-1.1-1.495-1.424l-.409.913Zm1.024.966c.791 1.116 1.262 2.225 1.433 3.33l.988-.153c-.198-1.284-.74-2.537-1.605-3.756l-.816.58Zm1.433 3.33c.606 3.918 1.274 6.86 2.013 8.8.368.967.768 1.724 1.215 2.23.452.514 1.012.828 1.66.728l-.153-.988c-.188.029-.434-.033-.758-.4-.33-.375-.678-1.002-1.03-1.926-.7-1.839-1.356-4.696-1.959-8.597l-.988.153Zm4.887 11.758c.445-.069.833-.338 1.17-.702.34-.367.665-.87.98-1.487l-.89-.454c-.293.574-.57.988-.823 1.261-.256.276-.454.373-.59.394l.153.988Zm2.151-2.191c2.625-5.217 4.19-10.409 4.686-15.573l-.995-.095c-.483 5.025-2.008 10.098-4.584 15.219l.893.449Zm4.582-15.311c.24-.305.458-.626.654-.962l-.863-.505c-.174.297-.366.58-.577.848l.786.619Zm12.99 25.252.175.469.008-.003-.182-.466Zm2.825-2.676.414.28.004-.006-.418-.274Zm1.414-3.592-.472-.164v.002l.472.162Zm-1.587-5.556-.267-.423-.005.003.272.42Zm-3.923 8.135-.489-.105.489.105Zm4.663 12.879.469.173.009-.025.006-.025-.484-.123Zm1.891-8.36-.493-.084-.001.007.494.076Zm-.823-.09-.4-.3-.004.005.404.296Zm-1.11 1.548-.41-.287-.115.165.03.199.495-.077Zm-.446.61.334.372-.334-.373Zm-.765 1.682-.411-.284-.003.005.414.28Zm-.648 1.045-.46-.197-.004.012-.005.011.47.174Zm-2.047 10.49-.5.01.003.17.107.133.39-.314Zm.44.93-.494.076.077.494.494-.076-.077-.494Zm1.96-3.73.466.18.001-.002-.467-.178Zm3.255-3.904.465.185v-.002l-.465-.182Zm-2.62 6.612-.465-.184-.002.003.467.181Zm-4.73-3.883-.483-.129v.001l.484.128Zm3.865-9.907-.389-.314-.016.02-.014.021.42.273Zm4.052-4.512.297.402.163-.12.033-.201-.493-.081Zm.114-1.88.152-.476-.197-.063-.184.095.229.444Zm-.207.41.468.179.004-.012-.472-.167Zm-.98 1.69.399.302-.399-.302Zm-1.282 1.655-.392-.31-.022.028-.018.031.432.251Zm-1.633 1.656-.278-.416-.003.003.282.413Zm-4.726-.727-.489.106.001.004.488-.11Zm.513-7.5-.483-.128.483.129Zm1.26-2.676-.411-.286-.007.01-.007.01.424.266Zm1.735-2.563-.417-.275.417.276Zm6.249-1.991.263-.425-.038-.024-.041-.016-.184.465Zm.761 1.609.49-.105-.003-.009-.002-.01-.485.124Zm.387 1.802-.489.105.003.014.004.013.482-.132Zm.279 1.63-.499-.033.499.033Zm.413 4.415.076.494.12-.018.098-.072-.294-.404Zm4.224-1.3.499.032.025-.38-.36-.125-.164.473ZM40.973 41.4l-.241-.438-.002.001.243.437Zm-2.488 2.058-.493-.084-.002.013-.002.013.497.058Zm-.208 1.975.498.046v-.005l-.498-.041Zm-.741 3.407.478.145.001-.003-.48-.142Zm-.991 3.364.486.115.001-.003-.487-.112Zm-5.76-5.847c1.059-.413 2.071-1.407 3.057-2.862l-.828-.56c-.947 1.398-1.818 2.188-2.592 2.49l.364.932Zm3.061-2.868c.163-.25.363-.695.597-1.29.24-.608.531-1.414.873-2.414l-.947-.323c-.34.993-.624 1.783-.856 2.371-.238.603-.404.957-.503 1.108l.836.547Zm1.469-3.702c.434-1.248.743-2.328.924-3.235.18-.9.239-1.664.146-2.267l-.988.153c.067.433.032 1.064-.139 1.918-.168.847-.463 1.88-.888 3.103l.945.328Zm1.07-5.502c-.067-.431-.225-.832-.546-1.1-.334-.279-.752-.339-1.171-.274l.153.988c.231-.036.33.014.377.054.06.05.151.177.199.484l.988-.152Zm-1.717-1.374c-.489.075-1.055.34-1.68.733l.533.846c.589-.37 1.016-.547 1.3-.59l-.153-.99Zm-1.684.736c-.95.613-1.749 1.653-2.424 3.053-.677 1.404-1.247 3.207-1.717 5.397l.978.21c.46-2.145 1.01-3.865 1.64-5.173.632-1.312 1.33-2.172 2.065-2.647l-.543-.84Zm-4.141 8.45c-.104.486-.068 1.171.061 2.006l.988-.153c-.126-.816-.134-1.348-.071-1.643l-.978-.21Zm.061 2.006c.115.743.284 1.352.545 1.755.134.208.316.398.563.5.258.107.524.092.766.002l-.349-.938a.129.129 0 0 1-.04.01h.003l.002.002-.001-.001-.005-.003a.509.509 0 0 1-.1-.115c-.14-.218-.285-.65-.396-1.365l-.988.153Zm5.575 11.1c1.017-4.005 1.654-6.813 1.901-8.406l-.988-.153c-.24 1.54-.864 4.305-1.882 8.314l.97.246Zm1.9-8.399c.047-.28.076-.55.043-.76l-.988.153c.006.036.006.166-.041.44l.986.167Zm.043-.76c-.018-.12-.08-.392-.345-.532-.283-.15-.549-.024-.66.042a1.77 1.77 0 0 0-.37.314 5.706 5.706 0 0 0-.383.462l.798.603a4.72 4.72 0 0 1 .313-.38.9.9 0 0 1 .15-.138c.033-.02-.118.086-.315-.018-.18-.095-.185-.256-.176-.2l.988-.153Zm-1.763.292c-.373.51-.745 1.029-1.115 1.556l.818.575a95.67 95.67 0 0 1 1.104-1.54l-.807-.59Zm-1.2 1.92a.303.303 0 0 1 .012-.154c.005-.011.003-.003-.019.027-.044.06-.13.155-.278.286l.667.746c.169-.151.314-.3.418-.442.084-.114.23-.341.188-.616l-.988.153Zm-.285.16a2.564 2.564 0 0 0-.43.474c-.1.15-.209.375-.168.636l.988-.153c.016.102-.032.138.014.068.04-.06.12-.153.263-.28l-.667-.746Zm-.598 1.11c.018.118-.015.328-.245.661l.822.569c.3-.433.485-.904.411-1.383l-.988.153Zm-.248.666c-.357.528-.604.92-.693 1.127l.919.394c.043-.1.227-.406.603-.962l-.83-.56Zm-.703 1.15c-1.448 3.915-2.149 7.475-2.078 10.675l1-.023c-.067-3.04.598-6.472 2.016-10.304l-.938-.347ZM29.657 62.32c.202.25.303.481.336.693l.988-.153c-.065-.42-.257-.81-.545-1.167l-.779.627Zm.907 1.11a.827.827 0 0 0 .388-.18c.095-.077.18-.17.258-.27.155-.197.317-.464.486-.786.34-.647.747-1.587 1.217-2.807l-.932-.36c-.467 1.209-.857 2.106-1.17 2.702-.157.3-.286.506-.387.634a.703.703 0 0 1-.098.107c-.02.015.01-.016.085-.027l.153.988Zm2.35-4.045a417.65 417.65 0 0 0 1.55-4.13l-.938-.346a419.127 419.127 0 0 1-1.546 4.12l.934.356Zm2.323-4.266-2.62 6.612.93.368 2.62-6.611-.93-.369Zm-2.622 6.615c-.467 1.203-.94 2.092-1.408 2.693-.47.604-.896.864-1.264.921l.152.989c.722-.112 1.351-.59 1.901-1.295.552-.709 1.067-1.699 1.552-2.946l-.933-.362Zm-2.672 3.614c-.357.055-.601-.04-.807-.281-.236-.278-.444-.782-.569-1.59l-.988.152c.136.878.382 1.6.795 2.085.443.522 1.041.728 1.722.623l-.153-.989Zm-1.376-1.871c-.28-1.814-.19-3.584.269-5.317l-.967-.256a13.86 13.86 0 0 0-.29 5.725l.988-.153Zm.269-5.316c1.19-4.468 2.463-7.71 3.8-9.763l-.838-.546c-1.424 2.188-2.729 5.551-3.928 10.051l.966.258Zm3.77-9.722a76.874 76.874 0 0 1 2.513-2.989c.676-.752 1.153-1.218 1.447-1.435l-.594-.804c-.385.283-.921.82-1.597 1.571a77.922 77.922 0 0 0-2.547 3.03l.779.627Zm4.156-4.745c.08-.485.136-.884.168-1.195.03-.293.045-.559.016-.745l-.988.153c.006.043.008.188-.023.49-.029.282-.082.66-.16 1.135l.987.162Zm.184-1.94a.605.605 0 0 0-.41-.497l-.306.953a.413.413 0 0 1-.21-.154.356.356 0 0 1-.062-.149l.988-.153Zm-.792-.465a.626.626 0 0 0-.216.19.982.982 0 0 0-.09.151 3.073 3.073 0 0 0-.143.346l.943.334c.04-.116.072-.189.092-.23.01-.02.013-.021.005-.011a.417.417 0 0 1-.134.11l-.457-.89Zm-.445.675c-.184.48-.483 1.003-.91 1.567l.796.604c.469-.618.822-1.223 1.048-1.813l-.934-.358Zm-.91 1.566c-.432.569-.858 1.118-1.277 1.648l.785.62c.423-.535.852-1.09 1.288-1.663l-.797-.605Zm-1.317 1.707c-.309.533-.793 1.032-1.479 1.491l.557.831c.781-.523 1.386-1.127 1.787-1.82l-.865-.502ZM32 46.73c-.665.453-1.322.722-1.976.823l.153.988c.823-.127 1.619-.461 2.386-.985L32 46.73Zm-1.976.823c-.631.097-1.058.011-1.344-.172-.28-.18-.51-.507-.637-1.074l-.976.219c.165.737.506 1.333 1.073 1.697.563.36 1.263.437 2.037.318l-.153-.988Zm-1.98-1.242c-.418-1.932-.264-4.346.508-7.267l-.967-.255c-.795 3.006-.982 5.592-.519 7.733l.978-.211Zm.507-7.266c.188-.703.58-1.548 1.2-2.54l-.848-.53c-.649 1.038-1.095 1.978-1.318 2.813l.966.257Zm1.187-2.52c.59-.85 1.172-1.707 1.742-2.572l-.835-.55c-.566.857-1.142 1.708-1.728 2.551l.82.57Zm1.742-2.572c.618-.934 1.82-1.6 3.757-1.9l-.153-.987c-2.068.32-3.598 1.066-4.438 2.336l.834.551Zm3.757-1.9c.83-.128 1.449-.077 1.89.098l.369-.93c-.67-.265-1.485-.299-2.412-.155l.153.988Zm1.811.058c.015.009.097.079.211.32.108.228.22.553.33.987l.969-.246a6.6 6.6 0 0 0-.395-1.168c-.14-.294-.324-.58-.588-.743l-.527.85Zm.536 1.289.387 1.802.978-.21-.387-1.801-.978.209Zm.394 1.829c.207.76.277 1.23.262 1.465l.998.066c.027-.42-.088-1.036-.296-1.795l-.964.264Zm.262 1.466c-.12 1.875-.145 3.15-.051 3.76l.988-.153c-.074-.48-.062-1.639.06-3.543l-.997-.064Zm-.051 3.76c.045.292.117.571.248.784a.878.878 0 0 0 .31.31c.15.086.318.113.481.087l-.153-.988c.05-.007.112 0 .167.032.046.026.057.052.047.036a.583.583 0 0 1-.05-.128 2.173 2.173 0 0 1-.062-.286l-.988.153Zm1.257 1.092c.986-.718 1.94-1.135 2.863-1.277l-.153-.989c-1.114.173-2.215.668-3.298 1.457l.588.809Zm2.863-1.277c.382-.06.677-.035.903.044l.328-.945c-.42-.145-.887-.164-1.384-.088l.153.989Zm.568-.461a.415.415 0 0 1 .045-.165c.014-.027.026-.041.027-.043a.307.307 0 0 1-.051.047c-.078.066-.209.16-.403.286-.385.25-.97.592-1.763 1.028l.482.877a31.07 31.07 0 0 0 1.825-1.066c.207-.133.378-.254.503-.36.061-.051.125-.11.179-.175a.643.643 0 0 0 .154-.364l-.998-.065Zm-2.147 1.154c-.798.443-1.43.85-1.878 1.221a3.613 3.613 0 0 0-.56.56c-.142.184-.26.395-.3.63l.986.168a.504.504 0 0 1 .106-.188c.084-.109.215-.242.405-.4.38-.314.95-.686 1.726-1.116l-.485-.875ZM37.988 43.4c-.1.863-.17 1.528-.209 1.992l.997.082c.036-.447.105-1.098.205-1.958l-.993-.116Zm-.209 1.987c-.076.83-.313 1.93-.723 3.31l.96.285c.417-1.41.675-2.58.76-3.503l-.997-.092Zm-.722 3.307c-.592 1.952-.93 3.096-1 3.397l.975.225c.06-.258.383-1.356.982-3.331l-.957-.29Zm-.998 3.395c-.384 1.614-.657 2.61-.822 3.03l.93.367c.197-.5.485-1.57.864-3.166l-.972-.231Zm23.204-7.338.05.498.444-.045.006-.447-.5-.006Zm-.746.062-.127.483.073.02.075-.004-.021-.5Zm-.962-.283.17-.47-.054-.02-.057-.007-.059.497Zm-2.5-.99.312-.39-.312.39ZM53.76 42.5l-.453.21.048.104.088.072.316-.387Zm-.388-.94.476-.15-.025-.08-.05-.068-.401.299Zm-.498-.597-.457.202.04.088.068.068.35-.358Zm-.396-.991.477-.15-.003-.011-.004-.01-.47.17Zm-.233-.639.47-.171-.142-.385-.405.062.077.494Zm-.298.343-.417-.276-.005.008-.005.008.427.26Zm-.944 1.576.428.26.004-.007-.432-.253Zm-1.073 1.435-.353-.355-.005.005.358.35Zm-.598.848-.423-.266-.002.002.425.264Zm-.654.83.292.405.006-.004.006-.005-.304-.397Zm-3.666 1.24.045-.497h-.008l-.008-.001-.03.499Zm-1.362-3.917.499.036v-.008l-.499-.028Zm.13-1.774.498.045.002-.017v-.017l-.5-.011Zm1.412-4.833-.45-.22-.001.005.451.215Zm.632-1.15-.404-.295-.01.013-.008.014.422.268Zm.814-1.016.362.345.03-.032.024-.036-.416-.277Zm.674-1.049-.364-.343-.036.04-.028.046.428.257Zm.328-.32.32.384.07-.058.044-.078-.434-.248Zm6.057-2.016-.325.38.006.005.006.005.313-.39Zm.572 2.825-.498.046.001.015.003.016.494-.077Zm-.01.46-.498-.045-.002.02v.02l.5.006Zm.02.483-.494.077.004.022.005.022.486-.12Zm.003.89-.497-.056.497.056Zm.056.882.492.088.027-.151-.063-.14-.456.203Zm-.174 3.589.498.046v-.007l-.498-.04Zm.05.667-.467.182.003.007.003.007.46-.196Zm.55 1.29.462-.189-.002-.006-.46.196Zm2.694 2.417-.234.443.021.01.023.01.19-.463Zm1.659.608.225-.447-.044-.022-.048-.014-.133.483Zm.302.385-.472.163.005.015.006.015.461-.194Zm-.014.433.338.37-.338-.37Zm-7.458-9.316.488.112.005-.023.003-.024-.496-.065Zm-.012-.78-.454-.211-.133.287.202.243.385-.32Zm-.852-3.242-.408.29.091.129.15.053.167-.472Zm-.884.218-.243-.438-.007.005.25.433Zm-.608.256.006-.5-.246-.003-.153.193.393.31Zm-.786.85-.077-.494-.242.037-.118.214.437.243Zm-.95 1.712.419.274.01-.016.009-.016-.438-.242Zm-1.465 2.736-.478-.147-.002.006.48.14Zm-.728 2.622.49.1v-.006l-.49-.094Zm-.014 2.7-.489.107.489-.107Zm.152.813-.494.077.004.026.007.025.483-.128Zm.517.38.142.479.006-.002-.148-.478Zm3.673-3.996.056-.497-.37-.041-.146.342.46.196Zm.853-1.292.462.192.002-.006-.464-.186Zm.65-1.557-.32-.385-.092.076-.047.11.458.199Zm.163-.16.404.295.06-.083.024-.1-.488-.113Zm7.555 7.85c-.335.035-.571.054-.717.06l.043 1c.176-.008.437-.03.775-.064l-.1-.995Zm-.568.076a11.86 11.86 0 0 1-.92-.27l-.338.941c.231.084.57.182 1.004.296l.254-.967Zm-1.03-.296c-.91-.107-1.652-.407-2.247-.883l-.625.78c.761.61 1.686.97 2.755 1.096l.117-.993Zm-2.247-.883c-.678-.543-1.107-.889-1.29-1.038l-.633.774c.188.153.621.502 1.298 1.044l.625-.78Zm-1.153-.863a7.924 7.924 0 0 1-.365-.877l-.953.301c.08.255.22.592.412 1l.906-.424Zm-.44-1.025a5.825 5.825 0 0 0-.55-.657l-.698.716c.098.096.245.27.446.538l.801-.597Zm-.441-.501a10.233 10.233 0 0 1-.377-.94l-.954.302c.08.25.221.601.416 1.042l.915-.404Zm-.384-.96-.002-.006-.002-.005-.003-.01-.002-.005-.001-.002-.001-.003-.002-.004c-.002-.008.001.002-.002-.005a.271.271 0 0 0-.003-.01l-.004-.01a3.88 3.88 0 0 0-.007-.018l-.013-.037-.006-.018-.004-.009v-.002l-.001-.002-.002-.005-.012-.034-.013-.033-.022-.062-.021-.058a3.488 3.488 0 0 0-.01-.026l-.005-.013-.002-.007-.003-.006-.017-.047-.015-.043a.387.387 0 0 1-.008-.02l-.003-.008-.003-.01-.012-.032-.018-.05a1.09 1.09 0 0 1-.007-.017l-.004-.012-.002-.005v-.002l-.001-.001v-.002l-.47.171-.47.172.001.003.001.003v.002l.002.002.01.03a.296.296 0 0 0 .005.01v.004l.002.003.002.006.01.027.003.008v.002l.001.002.002.004a.107.107 0 0 1 .002.007l.001.002v.002l.001.001.002.005.014.037.032.09c.015.04.024.063.04.11l.012.03.011.032.025.067.013.036.007.018a3.753 3.753 0 0 1 .008.023l.002.005.003.01c.003.007.005.01.007.019l.015.039.939-.344Zm-.78-.962a.606.606 0 0 0-.285.131 1.04 1.04 0 0 0-.13.127c-.07.082-.146.186-.223.303l.834.552c.068-.103.116-.166.144-.199.015-.017.015-.015.002-.004a.432.432 0 0 1-.19.079l-.152-.989Zm-.648.577c-.317.519-.633 1.047-.948 1.584l.863.505c.311-.531.624-1.054.938-1.568l-.853-.521Zm-.944 1.577c-.361.596-.695 1.037-.999 1.339l.705.71c.383-.38.764-.896 1.149-1.53l-.855-.519Zm-1.004 1.344c-.168.172-.394.501-.663.932l.847.53c.279-.444.45-.68.532-.763l-.716-.699Zm-.665.934c-.256.413-.434.62-.532.696l.607.794c.255-.195.513-.54.775-.963l-.85-.527Zm-.521.688a6.173 6.173 0 0 1-2.7 1.118l.152.988a7.174 7.174 0 0 0 3.133-1.295l-.585-.812Zm-2.7 1.118c-.253.039-.46.046-.629.03l-.091.997c.27.025.562.009.872-.04l-.153-.987Zm-.645.03c-.133-.008-.281-.073-.44-.33-.171-.274-.322-.723-.425-1.39l-.988.153c.111.722.29 1.324.563 1.764.283.456.692.769 1.23.8l.06-.997Zm-.865-1.72c-.066-.423-.078-.974-.027-1.663l-.997-.073c-.054.731-.045 1.364.036 1.89l.988-.154Zm-.027-1.671c.033-.593.076-1.179.13-1.757l-.996-.091c-.054.59-.098 1.187-.132 1.792l.998.056Zm.131-1.79c.028-1.218.466-2.755 1.363-4.629l-.902-.431c-.925 1.933-1.428 3.618-1.46 5.036l1 .023Zm1.361-4.625c.213-.436.415-.802.605-1.102l-.844-.536c-.215.34-.435.74-.66 1.199l.9.439Zm.586-1.074c.339-.463.595-.78.773-.967l-.724-.69c-.224.235-.511.595-.856 1.066l.807.59Zm.827-1.035c.308-.463.538-.82.687-1.068l-.857-.516c-.137.229-.357.57-.663 1.03l.833.554Zm.622-.983c.136-.144.228-.233.284-.279l-.64-.769a4.595 4.595 0 0 0-.371.362l.727.686Zm.398-.415c.702-1.227 1.749-1.942 3.183-2.164l-.153-.988c-1.728.267-3.041 1.159-3.898 2.655l.868.497Zm3.183-2.164c1.115-.172 1.767-.017 2.115.28l.65-.76c-.688-.587-1.714-.694-2.918-.508l.153.988Zm2.127.29c-.057-.046-.04-.067.007.062.04.106.083.266.128.489.09.445.175 1.085.252 1.93l.996-.09c-.079-.859-.167-1.541-.268-2.038a4.385 4.385 0 0 0-.17-.639c-.057-.152-.15-.358-.32-.494l-.625.78Zm.39 2.512.002.023v.07a3.595 3.595 0 0 1-.015.245l.996.091c.02-.217.03-.426.006-.582l-.988.153Zm-.015.378c-.003.222.004.417.026.565l.989-.153a2.8 2.8 0 0 1-.015-.4l-1-.012Zm.035.61c.025.098.036.319-.009.712l.994.113c.047-.413.056-.785-.014-1.068l-.97.242Zm-.009.712c-.047.419-.044.828.096 1.142l.913-.408c-.025-.056-.059-.235-.015-.621l-.994-.113Zm.06.85c-.225 1.262-.29 2.313-.163 3.13l.988-.152c-.102-.659-.058-1.584.16-2.802l-.985-.176Zm-.163 3.13v.012a1.888 1.888 0 0 1 .002.138c0 .09-.007.209-.018.358l.997.078c.023-.301.033-.566.007-.738l-.988.153Zm-.016.501c-.029.318-.02.633.081.895l.932-.364c-.017-.044-.041-.173-.017-.44l-.996-.09Zm.087.909.55 1.291.92-.392-.55-1.291-.92.392Zm.548 1.285c.415 1.011 1.444 1.887 2.923 2.669l.467-.885c-1.419-.749-2.186-1.484-2.465-2.164l-.925.38Zm2.967 2.689c.733.302 1.31.514 1.716.626l.266-.964c-.345-.095-.875-.288-1.601-.587l-.381.925Zm1.624.591h.001l.009.01a.31.31 0 0 1 .045.092l.945-.327c-.095-.273-.266-.525-.55-.668l-.45.893Zm.066.132a.38.38 0 0 1 .021.06c.003.011 0 .007.001-.009a.22.22 0 0 1 .02-.084.283.283 0 0 1 .068-.095l.675.737c.346-.317.24-.754.137-.997l-.922.388Zm.11-.128a.894.894 0 0 0-.306.654l1 .012a.14.14 0 0 1-.015.061c-.008.016-.014.019-.004.01l-.675-.737Zm-6.625-8.883c.03-.23.047-.433.044-.599a1.382 1.382 0 0 0-.025-.255.709.709 0 0 0-.143-.311l-.769.64a.357.357 0 0 1-.056-.094.136.136 0 0 1-.01-.031l.001.016.003.052c.001.094-.009.242-.036.452l.991.13Zm-.055-.635c.37-.795.55-1.535.449-2.185l-.988.153c.057.369-.035.894-.368 1.61l.907.422Zm.449-2.185c-.133-.86-.72-1.43-1.587-1.738l-.334.943c.616.218.87.542.933.948l.988-.153Zm-1.347-1.556c-.193-.273-.493-.311-.71-.278l.152.989h-.025a.325.325 0 0 1-.232-.133l.815-.578Zm-.71-.278a1.58 1.58 0 0 0-.383.124 5.614 5.614 0 0 0-.44.224l.484.874c.15-.083.27-.143.36-.183.1-.044.136-.051.13-.05l-.152-.989Zm-.831.352c-.14.08-.245.134-.319.165a.612.612 0 0 1-.07.026c-.015.004.001-.003.037-.002l-.012 1c.163.002.32-.055.433-.102a4.05 4.05 0 0 0 .431-.221l-.5-.866Zm-.75.38c-.216.272-.381.47-.499.597-.06.064-.099.102-.12.12-.011.01-.01.006.003-.001.005-.003.059-.038.145-.051l.153.988a.614.614 0 0 0 .227-.086.981.981 0 0 0 .119-.088c.066-.056.136-.126.207-.203.145-.156.329-.378.55-.658l-.786-.619Zm-.831.916-.115.208-.108.194-.013.023-.013.023-.006.011-.006.012-.003.005-.004.006-.006.012-.025.044-.012.022-.012.022-.093.167-.085.154-.04.072-.038.069a135.463 135.463 0 0 0-.134.24l-.103.188a8.177 8.177 0 0 0-.027.047l-.001.002-.001.002-.003.005a6.564 6.564 0 0 1-.01.017l-.017.032-.008.014-.004.007-.004.007-.014.025a3.403 3.403 0 0 1-.022.04l-.002.005-.001.002-.001.001a.277.277 0 0 0-.004.008l-.002.003a.08.08 0 0 1-.002.003l-.003.005-.004.008-.002.004-.001.002v.001l.436.243.438.242v-.001l.002-.003.001-.002.011-.02.045-.08.074-.135.048-.086.007-.012c0-.001 0-.002.002-.003l.001-.003.004-.006.013-.025.014-.025.015-.027.03-.055.017-.029.008-.014.004-.008.004-.007.017-.03.017-.032a23.75 23.75 0 0 1 .114-.206l.042-.075.022-.039.022-.04a.227.227 0 0 0 .005-.01l.006-.01.011-.02.006-.01.003-.006.003-.005.005-.01.006-.01.047-.086.05-.088c.02-.039.029-.053.05-.092l.223-.402-.874-.485Zm-.931 1.681c-.788 1.205-1.312 2.167-1.525 2.863l.956.294c.169-.55.623-1.413 1.406-2.61l-.837-.547Zm-1.527 2.87c-.432 1.474-.684 2.378-.74 2.668l.983.188c.044-.23.277-1.073.716-2.576l-.96-.28Zm-.738 2.661c-.208 1.009-.215 1.98-.013 2.908l.977-.213c-.17-.777-.167-1.607.015-2.493l-.979-.202Zm-.013 2.908c.06.27.108.53.147.783l.988-.153a13.8 13.8 0 0 0-.158-.844l-.977.215Zm.158.834c.056.214.163.456.382.617a.85.85 0 0 0 .76.114l-.282-.96c-.016.005-.006 0 .021.002.03.004.064.017.092.037.025.018.03.032.026.023a.394.394 0 0 1-.032-.088l-.967.255Zm1.148.729c1.71-.53 3.02-2.015 3.985-4.276l-.92-.393c-.91 2.13-2.049 3.308-3.36 3.713l.295.956Zm3.469-3.976a.721.721 0 0 0 .544-.182 1.6 1.6 0 0 0 .294-.345c.168-.256.345-.62.532-1.07l-.923-.384c-.18.434-.328.728-.444.903a.695.695 0 0 1-.102.13c-.014.012.065-.062.212-.046l-.113.994Zm1.373-1.603c.206-.513.42-1.028.644-1.545l-.917-.397a62.742 62.742 0 0 0-.655 1.57l.928.372Zm.505-1.36c.085-.07.18-.156.248-.248l-.807-.591c.008-.01.007-.008-.01.008a1.276 1.276 0 0 1-.07.063l.64.769Zm.332-.431.29-1.26-.974-.225-.29 1.26.974.225Zm14.728 6.061-.444.229.242.471.457-.27-.255-.43Zm-1.669-6.083.5-.01v-.01l-.5.02Zm-.039-.776.494-.077-.04-.264-.243-.113-.211.454Zm-.195.138-.428-.258-.005.009.433.249Zm-.143.292.221.448.17-.084.072-.176-.463-.188Zm-.734.49.351.357.002-.001-.353-.355Zm-3.247 1.69.097.49.057-.01.052-.024-.206-.456Zm-.628.124.076.495.01-.002.011-.002-.097-.49Zm-1.75-.673-.359.348.05.05.061.036.248-.434Zm-.706-.728-.494.077.024.157.111.115.359-.349Zm-.18-.296-.473.166.044.123.098.087.33-.376Zm-.282-1.467.481.138.004-.014-.485-.124Zm-.03-1.588-.499.022v.007l.5-.029Zm.273-1.202.48.141.002-.007.002-.008-.484-.126Zm.77-2.52.476.155.01-.03.006-.032-.491-.094Zm.104-.907-.465-.184-.03.076-.005.08.5.028Zm.33-.834-.23-.444-.166.086-.07.174.465.184Zm.723-.381-.117-.486-.094.022-.078.056.289.408Zm.708.214.295-.403-.295.403Zm.245.718-.5.002v.01l.001.009.5-.021Zm-.135.695-.403-.295-.048.065-.025.077.476.153Zm-.782 3.143.476.153.008-.024.005-.024-.489-.105Zm-.524 1.673-.477-.148-.035.11.018.115.494-.077Zm.389 1.64-.485.12.017.072.037.063.43-.255Zm.913.668-.273.42.091.059.107.016.075-.495Zm1.4-.19.265.425.055-.034.044-.047-.364-.343Zm.766-.63-.229-.445-.035.018-.032.024.296.403Zm1.072-.57-.238-.44h-.002l.24.44Zm.833-.723-.218-.45-.176.085-.071.182.465.183Zm.788-.662.369.338.084-.092.031-.121-.484-.125Zm.182-.568.472.167.014-.04.007-.043-.493-.084Zm.069-.253.476.153.02-.06.003-.062-.499-.031Zm.21-3.352-.484-.124-.012.046-.003.047.5.031Zm.121-.612.493.084-.493-.084Zm.105-.718-.311-.39-.158.125-.026.199.495.066Zm.045-.411-.485-.125-.043.17.071.158.457-.203Zm.1-.394-.374-.33-.08.09-.03.116.485.124Zm.274-.5-.254-.431-.148.087-.063.16.465.183Zm.618-.366.107-.489-.192-.042-.17.1.255.43Zm.866.19.322-.383-.095-.08-.12-.026-.107.489Zm.217.182.488-.11-.037-.164-.13-.109-.321.383Zm-.058 1.196.491.095.001-.006-.492-.089Zm-.035 1.166.498.041.007-.093-.026-.089-.48.141Zm-.207 2.326.463.188.028-.069.006-.074-.498-.045Zm-.124.424-.487-.113-.008.035-.003.036.498.042Zm-.391 2.354-.49-.099-.002.008-.001.007.493.084Zm-.087.66.497.055v-.009l-.497-.045Zm1.624 5.092.43-.254-.011-.02-.013-.017-.406.291Zm-.34 1.294-.29-.408-.006.005-.007.005.303.398Zm-1.181.911.157.475.101-.033.08-.073-.338-.369Zm.167-.105c-.777-1.51-1.269-2.963-1.485-4.36l-.988.154c.235 1.52.766 3.075 1.584 4.664l.889-.458Zm-1.485-4.36a11.412 11.412 0 0 1-.129-1.504l-1 .02c.012.56.059 1.105.141 1.638l.988-.153Zm-.13-1.513a49.05 49.05 0 0 0-.023-.549 3.554 3.554 0 0 0-.02-.285l-.99.153a49.374 49.374 0 0 1 .034.72l1-.04Zm-.328-1.21a.587.587 0 0 0-.592.06.899.899 0 0 0-.241.273l.857.515c.023-.038.014-.01-.037.027a.39.39 0 0 1-.165.065.424.424 0 0 1-.243-.034l.422-.907Zm-.838.342a2.92 2.92 0 0 0-.173.352l.926.377c.03-.073.067-.15.114-.231l-.867-.498Zm.068.093c-.346.17-.641.363-.864.584l.705.71c.12-.12.313-.255.602-.398l-.443-.896Zm-.863.583c-.028.028-.108.09-.272.192a9.986 9.986 0 0 1-.63.35c-.529.276-1.26.625-2.199 1.047l.411.912a46.609 46.609 0 0 0 2.25-1.071c.276-.144.508-.273.693-.387.176-.109.337-.22.45-.331l-.703-.712Zm-2.992 1.555-.629.124.194.98.628-.123-.193-.981Zm-.608.12c.005 0-.024.004-.102-.012a1.965 1.965 0 0 1-.304-.094 7.909 7.909 0 0 1-1.02-.508l-.496.869a8.82 8.82 0 0 0 1.157.572c.303.117.63.206.917.162l-.152-.989Zm-1.315-.528-.706-.727-.718.697.706.727.718-.697Zm-.571-.455a.997.997 0 0 0-.344-.595l-.661.75c.021.02.027.03.027.029l-.005-.01a.112.112 0 0 1-.005-.021l.988-.153Zm-.203-.385a6.19 6.19 0 0 1-.244-.846 1.613 1.613 0 0 1-.03-.243c-.003-.06.003-.081.002-.075l-.961-.276c-.07.24-.043.52.007.782.053.279.15.61.282.989l.944-.331Zm-.268-1.178c.023-.09.03-.197.032-.28a6.58 6.58 0 0 0 .001-.349 30.35 30.35 0 0 0-.048-1.111l-.998.057c.026.461.041.818.046 1.073.003.128.002.225 0 .295-.003.083-.008.092-.002.066l.968.25Zm-.015-1.733c0 .007 0-.012.008-.07a3.23 3.23 0 0 1 .043-.22c.042-.185.11-.434.202-.75l-.96-.282a13.81 13.81 0 0 0-.217.811 2.29 2.29 0 0 0-.075.554l1-.043Zm.257-1.055a46.57 46.57 0 0 1 .762-2.491l-.95-.312a47.553 47.553 0 0 0-.78 2.55l.968.253Zm.778-2.553a7.31 7.31 0 0 0 .11-.973l-.998-.054c-.017.328-.05.607-.094.839l.982.188Zm.077-.816.33-.834-.93-.368-.33.834.93.368Zm.093-.573a63.775 63.775 0 0 0 .672-.351c.025-.014.075-.041.112-.068l-.578-.815c.02-.015.028-.018-.015.006l-.135.072c-.118.063-.289.151-.513.267l.457.889Zm.612-.34c.004-.001.087-.02.295.131l.591-.806c-.32-.234-.708-.397-1.12-.297l.234.972Zm.295.131c-.02-.015-.01-.02.006.027a.945.945 0 0 1 .035.29l1-.005c-.001-.398-.087-.852-.45-1.118l-.59.806Zm.042.336c.006.135-.002.232-.015.298-.013.067-.028.086-.024.08l.807.591c.207-.283.246-.66.231-1.012l-.999.043Zm-.112.521c-.226.706-.491 1.774-.795 3.191l.978.21c.302-1.41.559-2.439.77-3.095l-.953-.306Zm-.782 3.143c-.122.381-.297.941-.525 1.678l.955.296c.228-.736.402-1.292.522-1.668l-.952-.306Zm-.542 1.903c.026.169.164.747.398 1.684l.97-.242a40.916 40.916 0 0 1-.38-1.595l-.988.153Zm.452 1.818a.898.898 0 0 0 .188.211c.059.051.13.107.212.166.163.12.389.272.671.456l.545-.84c-.277-.179-.484-.32-.625-.422a2.441 2.441 0 0 1-.149-.116c-.045-.04-.015-.022.02.036l-.862.509Zm1.27.908c.653.098 1.256.042 1.74-.26l-.53-.848c-.206.128-.537.198-1.062.119l-.149.989Zm1.838-.341c.106-.112.329-.3.699-.572l-.593-.805c-.373.274-.66.508-.833.69l.727.687Zm.631-.53c.354-.182.715-.374 1.084-.577l-.481-.876c-.361.198-.715.386-1.06.564l.457.89Zm1.081-.575a3.69 3.69 0 0 0 .647-.432c.172-.15.328-.33.413-.547l-.93-.366a.506.506 0 0 1-.139.158 2.658 2.658 0 0 1-.467.307l.477.88Zm.813-.712c.305-.148.619-.425.939-.774l-.737-.676c-.296.323-.507.486-.638.55l.436.9Zm1.055-.987c.028-.11.082-.282.169-.526l-.943-.334a7.676 7.676 0 0 0-.195.61l.968.25Zm.19-.609c.003-.018.017-.074.052-.184l-.952-.306c-.038.117-.07.23-.086.323l.986.167Zm.075-.306.21-3.351-.998-.063-.21 3.351.998.063Zm.196-3.258a8.75 8.75 0 0 0 .13-.653l-.986-.168a7.796 7.796 0 0 1-.113.572l.969.249Zm.13-.653c.03-.175.065-.422.107-.736l-.991-.132a21.2 21.2 0 0 1-.102.7l.985.168Zm-.077-.41a.743.743 0 0 0 .28-.508.972.972 0 0 0-.09-.5l-.914.408c.021.047.005.036.01-.015a.255.255 0 0 1 .09-.168l.624.782Zm.217-.679.101-.393-.969-.25-.1.394.968.249Zm-.008-.187c.149-.17.266-.4.363-.649l-.93-.366a1.358 1.358 0 0 1-.183.354l.75.66Zm.153-.401.618-.366-.51-.86-.617.365.508.86Zm.256-.308.866.19.214-.977-.866-.19-.214.977Zm.651.085.218.182.643-.766-.218-.182-.643.766Zm.051-.092c.035.158.033.473-.062.998l.984.178c.1-.548.135-1.03.054-1.394l-.976.218Zm-.06.993c-.104.536-.136 1.023-.025 1.401l.96-.282c-.041-.138-.05-.428.046-.93l-.982-.189Zm-.044 1.219a278.13 278.13 0 0 1-.206 2.32l.995.092c.101-1.095.17-1.872.208-2.33l-.997-.082Zm-.172 2.178a3.428 3.428 0 0 0-.147.5l.974.225a2.64 2.64 0 0 1 .1-.348l-.927-.377Zm-.158.571c-.035.424-.16 1.183-.384 2.297l.98.197c.224-1.113.36-1.924.4-2.412l-.996-.082Zm-.386 2.312c-.04.234-.07.467-.092.699l.996.091c.019-.206.046-.413.082-.623l-.986-.167Zm-.091.69a6.017 6.017 0 0 0 .038 1.583l.989-.153c-.07-.45-.08-.89-.033-1.32l-.994-.11Zm.038 1.583c.202 1.305.77 2.59 1.677 3.855l.812-.583c-.835-1.165-1.327-2.306-1.5-3.425l-.989.153Zm1.652 3.818a.786.786 0 0 1 .111.253l.989-.152a1.75 1.75 0 0 0-.239-.61l-.86.509Zm.111.253c.003.017.023.143-.31.378l.58.816c.445-.317.808-.766.719-1.346l-.989.152Zm-.323.388c-.37.283-.655.5-.853.653a8.364 8.364 0 0 0-.363.288l.676.737.072-.057.226-.176.848-.65-.606-.795Zm-1.035.834c-.132.044-.258.1-.375.169l.509.86a.918.918 0 0 1 .18-.079l-.314-.95Zm16.264-9.76h-.5v.022l.5-.02Zm.854 5.697.46-.194-.003-.008-.003-.008-.454.21Zm.357.565-.4.3.004.006.005.006.391-.312Zm-.092 1.148.266.423.012-.008.01-.008-.288-.407Zm-.738.465-.267-.423.343.917-.076-.494Zm-.714-.43-.459.2.07.16.156.083.233-.443Zm-.727-1.56-.486.117.015.062.03.056.441-.235Zm-.512-6.1-.496-.06-.004.034v.035l.5-.01Zm.028-1.57.496-.057-.032-.278-.254-.118-.21.453Zm-.673.887.46.197.003-.008-.463-.19Zm-.573 1.357.426.261.021-.033.015-.037-.462-.191Zm-.532 1.27.449.22.024-.049.013-.052-.486-.12Zm-2.776 4.908.23.444.106-.055.07-.098-.406-.291Zm-.982.8-.354-.355-.006.007.36.347Zm-2.87 1.333-.016.5h.03l-.014-.5Zm-.864-.352-.335.371.012.012.014.01.309-.393Zm-.781-.688-.338.368.006.006.006.005.326-.38Zm-.504-1.164-.497.056.001.01.002.01.494-.076Zm-.116-1.277.498-.035v-.011l-.002-.011-.496.057Zm.253-4.815.492.088-.492-.088Zm1.447-4.433.435.246.066-.117-.001-.135-.5.006Zm.68-2.4-.185-.464-.012.005-.011.006.209.454Zm.745.101-.245.436.007.004.007.004.231-.444Zm-.245 3.303-.427-.26-.013.022-.01.022.45.216Zm-.703 2.78-.49-.096-.001.002.49.094Zm-.373 3-.497.056.002.01.001.01.494-.077Zm.007 1.267-.5-.028v.014l.5.014Zm.758 2.635-.295.403.107.078.132.015.056-.496Zm1.78-.357-.32-.383-.006.005.326.378Zm1.977-2.572.437.243.005-.008.004-.008-.446-.227Zm1.46-2.95.45.216.035-.074.01-.08-.495-.063Zm.087-.311.44.235.008-.013.006-.013-.455-.21Zm2.398-5.255-.403-.296-.032.043-.021.048.456.205Zm.055-.17-.413-.284-.073.108-.012.13.498.046Zm.732-2.245-.077-.494-.414.064-.01.418.5.012Zm.026-.004.077.494.264-.041.113-.243-.454-.21Zm.209-.572-.369-.338-.08.088-.033.115.481.135Zm1.822.096.481.136.076-.265-.185-.206-.372.335Zm-.41 1.358-.47-.17-.004.01-.002.008.476.152Zm-.526 4.102-.5-.01v.022l.5-.012Zm-.464 2.175c.076 1.765.162 2.984.262 3.63l.988-.152c-.09-.583-.175-1.748-.25-3.521l-1 .043Zm.262 3.63c.133.86.343 1.614.638 2.254l.908-.418c-.247-.536-.435-1.195-.558-1.988l-.988.153Zm.63 2.239c.083.194.233.423.419.671l.8-.6c-.177-.236-.265-.384-.296-.46l-.922.389Zm.428.683c.08.1.132.177.165.234.035.062.032.075.028.051l.989-.153a1.172 1.172 0 0 0-.148-.393 2.893 2.893 0 0 0-.252-.362l-.782.623Zm.193.285a.09.09 0 0 1 .001-.03c.002-.009.003-.007-.004.005a.672.672 0 0 1-.18.168l.578.815c.335-.237.671-.608.594-1.11l-.989.152Zm-.161.128c-.001 0-.002 0-.003.002l-.003.001-.003.002-.002.002-.003.002c-.001 0-.002 0-.003.002l-.003.001-.003.002-.003.002-.002.002-.003.001-.003.002-.003.002-.003.002s-.002 0-.003.002l-.002.001-.003.002-.003.002s-.002 0-.003.002l-.002.001-.003.002-.003.002s-.002 0-.003.002l-.002.001-.003.002-.003.002-.003.001-.003.002-.002.002-.003.002-.003.001-.002.002-.003.002-.003.001-.002.002-.003.002-.003.001-.002.002-.003.002-.003.001-.002.002-.003.002s-.002 0-.003.002l-.002.001-.003.002-.003.001-.002.002-.003.002-.002.001-.003.002-.003.002-.002.001-.003.002-.002.002-.003.001-.002.002-.003.001-.003.002-.002.002-.003.001-.002.002-.003.001-.002.002-.003.002c-.013.008.008-.006-.005.003l-.002.001-.003.002-.002.002-.003.001-.002.002-.003.001-.002.002-.003.001-.002.002-.003.001-.002.002a443124653.398 443124653.398 0 0 1-.005.003l-.003.002-.002.001-.002.002-.005.003-.005.003-.005.003a.046.046 0 0 0-.004.003l-.003.001-.002.002-.003.001-.002.002-.005.003c-.021.013.017-.011-.004.003l-.003.001-.002.002c-.025.015.02-.013-.005.002-.027.018.023-.014-.004.003l-.002.002-.003.001c-.006.004.002 0-.004.003l-.003.002h-.002l-.002.002-.002.002-.018.011-.009.005-.002.002-.002.001-.002.002-.003.001-.002.001-.002.002-.004.002-.002.002-.003.001-.002.002h-.002l-.017.011-.032.02-.004.003-.002.002h-.002l-.002.002-.002.001-.004.003h-.002c0 .001 0 .002-.002.002l-.001.001-.002.002h-.002l-.002.002-.002.001-.002.001c-.023.015.015-.01-.007.005l-.002.001-.002.001-.002.002h-.002c-.029.02.014-.008-.014.01l-.002.001-.002.001-.002.001-.002.001-.003.003h-.002l-.002.002-.002.001-.001.001c-.007.005.003-.002-.004.002l-.001.001-.002.002h-.002l-.002.002-.003.002h-.002l-.001.002-.002.001-.002.001-.003.002-.007.004-.001.001-.002.001-.002.001-.001.001-.002.001-.001.002c-.007.004.003-.003-.004.002l-.006.003-.012.008-.007.004c-.012.008.007-.004-.005.004h-.002l-.001.002h-.002l-.001.002-.003.002h-.002l-.001.001-.043.028c-.004.002-.002 0-.005.003-.007.004.001-.002-.005.003-.018.01.014-.01-.003.001l-.002.002c-.003.002-.002 0-.005.003h-.001l-.001.001-.001.001h-.001c-.018.012.013-.008-.005.004-.027.016.018-.012-.009.005-.034.021.03-.018-.004.003-.022.014.02-.013-.002.001h-.001l-.001.002-.008.005-.016.01-.026.015-.01.007-.005.003-.003.002c-.022.014.02-.013-.002.001l-.004.003-.004.002-.006.004-.003.002c-.007.005.006-.004-.001 0l-.001.001c-.014.009.012-.007-.001.001h-.001c-.013.009.012-.007-.001.001-.002.002.002 0 0 0h-.001v.001h-.001c-.002.002 0 0 0 .001-.004.002.002-.002-.001 0-.001 0 0 0 0 0l.266.424.267.422c.003-.002-.003.002 0 0l.002-.001c.028-.018-.024.015.004-.003l.005-.003.003-.002c.01-.006-.008.005.002 0v-.001h.002c.025-.017-.019.01.007-.006l.005-.003h.001c.013-.008-.011.007.001-.001l.003-.002h.001c.008-.006-.007.004.001-.001l.003-.002.003-.002h.001l.002-.002c.004-.002-.002.002.003-.001l.003-.002c.013-.009-.012.007.001-.001l.002-.001.003-.002c.007-.005-.006.003.002-.001l.001-.001h.001v-.001l.003-.002.003-.002h.002v-.001h.002v-.001l.001-.001.002-.001h.001l.001-.001c.007-.005-.005.003.002-.002.023-.014-.02.013.004-.002l.002-.001.002-.001v-.001h.002c.013-.009-.011.006.002-.002l.002-.001.002-.002c.021-.013-.02.013.002 0v-.002h.003l.001-.002c.008-.005-.006.004.002 0 .026-.017-.022.013.005-.004.014-.009-.013.008.002-.001.015-.01-.013.008.002-.001l.001-.001h.001l.002-.002.005-.003h.001l.002-.002c.018-.011-.017.01.002-.001l.005-.003c.016-.01-.014.008.002-.002h.001l.002-.001.001-.001h.001l.003-.002.001-.001.001-.001h.001l.002-.002.005-.003.003-.002.002-.001.002-.001.002-.002h.002c.017-.012-.013.007.005-.004h.001l.002-.002.003-.001.001-.001.001-.001.003-.002.002-.001h.001l.001-.002h.002c.012-.008-.01.005.003-.002l.001-.001.002-.001.006-.004.003-.002h.001l.002-.002h.001l.002-.002h.001l.002-.002.003-.002h.001l.002-.002h.001l.002-.002h.002l.001-.002h.002l.001-.002h.002l.001-.002h.002l.002-.002h.001l.002-.002h.002l.001-.002h.002l.001-.002h.002l.002-.002h.001l.002-.002h.002l.001-.002.002-.001.002-.001.001-.001.002-.001.002-.001.002-.001.001-.001.002-.002c.02-.013-.017.011.004-.002h.001l.002-.002.002-.001.001-.001.002-.001.002-.001.002-.001.001-.002h.002l.002-.002c.022-.014-.018.012.004-.002l.001-.001.002-.001.002-.002h.002l.007-.005.002-.001.002-.002h.002l.002-.002c.005-.003-.002 0 .003-.002l.002-.002h.002l.002-.002.002-.001.002-.001.002-.002h.002l.002-.002.002-.001.002-.001.001-.002h.002l.002-.002.002-.001.008-.005.002-.001.002-.002.002-.001.002-.001.004-.003.002-.001.002-.001.002-.002h.002l.002-.002.002-.001.002-.002.002-.001.002-.001.003-.002h.002l.002-.002.002-.002h.002l.002-.002.002-.002h.002l.002-.002.002-.002h.003l.002-.002.002-.002h.002l.002-.002.002-.002.002-.001.003-.001.002-.002.002-.001.002-.001.009-.006.002-.001.002-.002.003-.001.002-.002.002-.001.002-.001.005-.003.002-.002.002-.001.002-.002h.003l.002-.002.002-.002.003-.001.002-.002.002-.001.002-.002.003-.001.002-.002h.002l.003-.002.002-.002.002-.001.039-.024.002-.002.002-.002.003-.001.002-.002.003-.001.002-.002.003-.001.002-.002a.055.055 0 0 1 .005-.003l.003-.002.002-.001.003-.002.002-.001.003-.002.002-.001.02-.013c.002 0 .002-.001.003-.002.001 0 .002 0 .003-.002l.002-.001.003-.002.002-.001.003-.002.003-.002.002-.001.01-.007.004-.002.002-.001.003-.002.002-.002.003-.001.003-.002.002-.002.003-.001.003-.002.002-.002.003-.001.003-.002.002-.002a.068.068 0 0 0 .003-.002l.003-.001.003-.002.002-.002.003-.001.003-.002.003-.002s.002 0 .002-.002l.003-.001.003-.002.003-.002.002-.002.003-.001.003-.002.003-.002.022-.014.003-.002c.001 0 .002 0 .003-.002l.003-.001.003-.002.002-.002.003-.002c.001 0 .002 0 .003-.002l.003-.001-.533-.846Zm-.395 1.382a.508.508 0 0 0 .225-.913 1.632 1.632 0 0 0-.182-.123 13.15 13.15 0 0 0-.6-.33l-.466.885c.264.138.444.238.55.302.059.035.073.046.066.04a.343.343 0 0 1-.031-.028.494.494 0 0 1 .286-.821l.152.988Zm-.331-1.123a24.02 24.02 0 0 0-.745-1.597l-.882.471c.167.314.403.819.71 1.524l.917-.398Zm-.7-1.479c-.097-.401-.18-.824-.248-1.268l-.989.153c.073.469.161.92.265 1.35l.972-.235Zm-.248-1.268c-.117-.752-.202-2.316-.25-4.724l-1 .02c.048 2.397.133 4.027.261 4.857l.989-.153Zm-.253-4.654c.074-.616.086-1.18.027-1.687l-.993.115c.047.411.04.894-.027 1.451l.993.12Zm-.259-2.083a.649.649 0 0 0-.588.023 1.03 1.03 0 0 0-.32.289c-.153.202-.297.493-.438.84l.926.377c.133-.327.238-.519.309-.613.037-.049.038-.035-.003-.013a.352.352 0 0 1-.307.004l.421-.907Zm-1.342 1.143c-.2.464-.391.918-.575 1.362l.923.383c.183-.44.373-.89.57-1.351l-.918-.394Zm-.54 1.292a4.938 4.938 0 0 0-.591 1.412l.97.239c.099-.398.256-.774.473-1.128l-.852-.523Zm-.555 1.31c-1.077 2.193-1.988 3.8-2.733 4.838l.813.583c.794-1.106 1.733-2.772 2.818-4.98l-.898-.44Zm-2.555 4.685c-.323.166-.695.48-1.108.89l.707.708c.398-.398.68-.617.858-.709l-.457-.889Zm-1.114.897c-.672.698-1.278 1.039-1.814 1.122l.153.988c.834-.129 1.627-.633 2.38-1.416l-.72-.694Zm-1.814 1.122a5.8 5.8 0 0 1-.71.06l.028 1c.303-.01.582-.033.835-.072l-.153-.988Zm-.68.06c-.158-.005-.346-.069-.571-.246l-.618.786c.348.275.736.446 1.157.46l.032-1Zm-.545-.224c-.275-.248-.538-.48-.79-.697l-.652.76c.246.21.503.436.772.68l.67-.742ZM72 39.578c-.13-.12-.271-.375-.348-.871l-.988.153c.092.593.287 1.113.66 1.455l.676-.737Zm-.345-.85a30.372 30.372 0 0 1-.115-1.257l-.997.07c.03.434.07.867.118 1.298l.994-.111Zm-.117-1.28c-.152-1.316-.073-2.87.25-4.669l-.985-.177c-.334 1.865-.425 3.521-.258 4.962l.993-.115Zm.25-4.669c.322-1.799.79-3.217 1.389-4.275l-.87-.492c-.674 1.189-1.17 2.726-1.504 4.59l.984.177Zm1.454-4.527c-.008-.67.044-1.161.139-1.494.097-.344.211-.427.251-.445l-.418-.908c-.43.198-.665.623-.795 1.08-.133.466-.186 1.066-.177 1.779l1-.012Zm.367-1.929c.036-.014.122-.035.313.072l.49-.871c-.36-.203-.77-.291-1.175-.13l.371.929Zm.328.08c.118.062.225.18.27.468l.988-.153c-.08-.52-.329-.959-.797-1.202l-.462.887Zm.27.468c.07.45-.11 1.144-.712 2.131l.854.52c.633-1.037.972-1.99.846-2.804l-.988.153Zm-.736 2.175c-.112.234-.224.601-.342 1.066-.12.475-.254 1.088-.4 1.834l.98.193c.146-.738.275-1.33.39-1.782.117-.462.21-.743.274-.879l-.902-.432Zm-.743 2.902c-.15.784-.259 1.435-.323 1.95-.062.503-.088.915-.056 1.2l.994-.113c-.018-.157-.007-.466.055-.963.06-.485.163-1.112.312-1.885l-.982-.189Zm-.376 3.17c.03.188.035.564.002 1.163l.998.055c.034-.598.035-1.068-.012-1.371l-.988.153Zm.001 1.177c-.016.603-.002 1.087.052 1.432l.988-.153c-.04-.252-.056-.663-.04-1.252l-1-.027Zm.052 1.432c.105.68.395 1.242.911 1.62l.59-.807c-.254-.187-.439-.485-.513-.966l-.988.153Zm1.15 1.713c.862.098 1.627-.011 2.163-.474l-.653-.757c-.226.195-.648.323-1.397.238l-.113.993Zm2.157-.47c.749-.626 1.443-1.54 2.093-2.712l-.874-.485c-.616 1.11-1.24 1.91-1.86 2.431l.641.767Zm2.102-2.728c.498-.98.986-1.967 1.464-2.961l-.901-.434c-.475.988-.96 1.968-1.455 2.941l.892.454Zm1.51-3.116a.456.456 0 0 1 .032-.137l-.883-.47c-.08.15-.121.319-.142.483l.993.124Zm.045-.163a815.52 815.52 0 0 0 2.4-5.259l-.912-.41a814.538 814.538 0 0 1-2.397 5.251l.909.418Zm2.347-5.169a.833.833 0 0 0 .15-.42l-.996-.091c-.001.008-.001.003.003-.01a.25.25 0 0 1 .037-.07l.806.591Zm.064-.182a4.55 4.55 0 0 0 .82-2.517l-1-.023a3.551 3.551 0 0 1-.645 1.974l.825.566Zm.396-2.034h.004v-.001h.007v-.001h.006v-.001h.007v-.001h.002l-.076-.494-.076-.495h-.003v.001h-.007v.001h-.006v.001h-.007v.001h-.003l.152.989Zm.404-.288a4.41 4.41 0 0 0 .236-.647l-.963-.27a3.277 3.277 0 0 1-.18.496l.907.421Zm.123-.444c.176-.192.327-.264.45-.283L83 23.575c-.404.063-.748.283-1.034.595l.737.676Zm.45-.283c.106-.016.31.017.632.375l.744-.669c-.417-.463-.933-.786-1.53-.694l.154.988Zm.523-.096a26.08 26.08 0 0 1-.4 1.326l.941.339c.082-.229.224-.7.421-1.392l-.962-.273Zm-.405 1.343c-.338 1.051-.515 2.474-.55 4.244l1 .02c.034-1.73.208-3.042.502-3.96l-.952-.304Zm-.55 4.266c.024.967.035 1.68.036 2.142l1-.001c0-.474-.013-1.197-.036-2.165l-1 .024Zm11.659 7.68.484-.125-.006-.024-.009-.023-.47.172Zm-.083.687.34.367.091-.084.041-.118-.472-.165Zm-1.015.94-.124.484.264.068.2-.185-.34-.367Zm-.197-.05.125-.485-.037-.01-.038-.003-.05.497Zm-1.699-.17-.402.297.132.179.22.022.05-.498Zm-1.23-1.671-.492-.09-.038.212.128.174.403-.296Zm.146-.805-.377-.33-.09.105-.025.136.492.089Zm.435-.5-.045-.497-.2.018-.131.15.376.33Zm2.129-.194.295-.403-.152-.112-.189.017.046.498ZM92.01 7.766l.492-.09-.13-.705-.617.364.255.43Zm.342 1.863.499.032.004-.062-.011-.06-.492.09Zm-.348 6.476-.5-.026v.04l.5-.014Zm.063 2.5.5-.002v-.01l-.5.012Zm.065 4.954-.5.009v.034l.005.034.495-.076Zm-.012 3.24-.5-.03.5.03Zm.517 3.347-.441.234.03.057.043.047.368-.338Zm.13.142.5.016.007-.203-.138-.15-.369.337Zm-.075 2.305.093.492.394-.075.013-.4-.5-.017Zm-.786.149-.382.323.188.222.286-.054-.093-.491Zm-.364-.43.382-.322-.187-.222-.286.053.091.491Zm-.892.165-.295.404.174.127.212-.04-.09-.49Zm-.328-.38-.422.267.003.006.419-.274Zm-.46-2.277.5.013v-.001l-.5-.012Zm-.035-2.666-.5.018.002.03.004.028.494-.076Zm.039-7.427.5.013.003-.115-.048-.104-.455.206Zm-.148-2.702.499.033v-.003l-.499-.03Zm-.023-2.938-.487-.112-.026.113.027.113.486-.114Zm.214-2.11-.499-.041.499.04Zm.47-2.016.45.218.042-.085.007-.095-.499-.038Zm.125-1.638-.38-.324-.106.123-.013.163.499.038Zm.502-.59.09-.493-.284-.051-.186.22.38.323Zm.722.13-.09.492.084.015.083-.012-.077-.495Zm2.169 30.018c.008.031.017.148-.07.397l.943.33c.112-.32.176-.663.095-.977l-.968.25Zm.062.195-1.015.94.679.734 1.015-.94-.68-.734Zm-.551.822-.197-.05-.249.968.197.051.249-.969Zm-.272-.063-1.7-.17-.098.996 1.699.169.099-.995Zm-1.346.032-1.23-1.672-.805.593 1.23 1.672.805-.593Zm-1.14-1.287.145-.805-.984-.177-.146.805.984.177Zm.03-.565.435-.499-.753-.657-.436.499.754.657Zm.104-.33 2.128-.194-.09-.996-2.13.195.092.995Zm1.788-.288c.751.55 1.169 1.065 1.34 1.53l.938-.343c-.265-.726-.857-1.386-1.688-1.994l-.59.807Zm-1.054-28.54.342 1.862.984-.18-.342-1.863-.984.18Zm.335 1.74a621.35 621.35 0 0 0-.348 6.482l.999.05c.163-3.245.28-5.4.347-6.468l-.998-.064Zm-.349 6.522c.013.428.034 1.26.063 2.497l1-.023a577.93 577.93 0 0 0-.063-2.503l-1 .03Zm.063 2.487c.002.831.024 2.486.065 4.962l1-.017a436.866 436.866 0 0 1-.065-4.948l-1 .003Zm.07 5.03c.08.519.082 1.547-.016 3.133l.998.061c.097-1.575.106-2.706.007-3.347l-.989.153Zm-.016 3.133c-.09 1.463.083 2.683.575 3.611l.883-.468c-.371-.7-.544-1.712-.46-3.082l-.998-.061Zm.648 3.715.13.142.737-.676-.13-.141-.737.675Zm-.001-.212-.076 2.305 1 .033.075-2.306-1-.032Zm.331 1.83-.786.149.185.982.787-.148-.186-.983Zm-.312.317-.363-.43-.764.646.364.43.763-.646Zm-.836-.598-.892.165.182.983.892-.165-.182-.983Zm-.505.253a1.045 1.045 0 0 1-.206-.252l-.837.548c.131.2.28.385.452.51l.59-.806Zm-.202-.246c-.257-.403-.408-1.046-.383-1.995l-1-.026c-.027 1.038.13 1.913.538 2.557l.845-.536Zm-.382-1.996c.033-1.393.025-2.332-.04-2.755l-.989.153c.049.316.063 1.154.029 2.578l1 .024Zm-.035-2.696c-.059-1.648-.046-4.11.039-7.396l-1-.026c-.085 3.29-.099 5.778-.039 7.458l1-.036Zm-.006-7.615c-.055-.123-.112-.376-.136-.812a14.12 14.12 0 0 1 .032-1.65l-.998-.067a15.058 15.058 0 0 0-.032 1.772c.025.465.088.872.224 1.17l.91-.413Zm-.104-2.466c.046-.76.067-1.393.063-1.899-.003-.495-.031-.9-.098-1.183l-.973.228c.039.168.068.479.071.963.004.474-.016 1.083-.061 1.83l.998.061Zm-.034-2.855c.03-.13.061-.388.095-.73.037-.357.08-.841.129-1.453l-.997-.081c-.05.609-.091 1.086-.126 1.433a7.39 7.39 0 0 1-.076.606l.975.225Zm.224-2.183c.066-.804.214-1.408.422-1.838l-.9-.437c-.282.582-.448 1.322-.519 2.194l.997.081ZM90.878 10l.124-1.639-.997-.075-.124 1.638.997.076Zm.007-1.352.502-.59-.761-.649-.503.59.762.649Zm.032-.423.722.131.179-.983-.722-.132-.18.984Zm.888.134c.16-.025.316-.077.46-.162l-.51-.86a.286.286 0 0 1-.103.033l.153.989ZM112.2 20.456l.325-.38-.175-.149-.227.035.077.494Zm-.027.004-.347.36.178.172.246-.038-.077-.494Zm-.698-.674-.486-.118-.067.278.206.2.347-.36Zm.116-.477-.32-.384-.128.106-.038.16.486.118Zm.478-.398.319.385.112-.093.045-.139-.476-.152Zm.107-.178-.342-.364-.034.031-.027.038.403.295Zm3.601-1.663.153.476h.001l-.154-.476Zm3.829-1.24.006-.5h-.082l-.078.024.154.476Zm2.323-.332-.084-.493-.006.001.09.492Zm2.184-.014.494-.076-.044-.289-.273-.103-.177.468Zm.02.132.49.102.018-.09-.013-.089-.495.077Zm-.238.55.01.5.279-.007.141-.24-.43-.254Zm-.663.426-.425-.264-.012.019-.01.02.447.225Zm-.326.509-.046.498.282.026.167-.229-.403-.295Zm-.693.053-.077-.494-.095.015-.083.049.255.43Zm-1.229.082-.211.453.103.048.112-.001-.004-.5Zm-.868-.028-.125-.484-.008.003.133.481Zm-.879.244.117.486.008-.002.008-.002-.133-.482Zm-1.036.457.137.481.05-.014.046-.024-.233-.443Zm-1.155.557-.233-.443h-.001l.234.443Zm-1.237.38-.031-.5-.197.013-.135.144.363.343Zm-.816.477.194.46-.194-.46Zm-.839.507-.014.5.228.006.154-.168-.368-.338Zm-.597-.015.014-.5-.208-.006-.151.144.345.361Zm-1.01.965-.358.35.345.354.358-.342-.345-.362Zm3.936 6.785.076.494.228-.035.121-.195-.425-.264Zm-.422.065-.076-.494-.177.028-.119.133.372.333Zm-1.672.88-.235.44.147.08.165-.026-.077-.494Zm-.261-.122-.278.416.042.028.047.02.189-.464Zm-.844-.922-.292-.406-.284.203.094.337.482-.134Zm2.113-1.514.291.407.095-.068.055-.104-.441-.235Zm.085-.148.013-.5-.262-.007-.154.212.403.295Zm.298.008-.013.5.135.003.118-.064-.24-.439Zm1.792-.979-.077-.494-.086.014-.077.042.24.438Zm2.339-.577.076.494.054-.009.052-.02-.182-.465Zm2.903-.422.049.497h.001l-.05-.497Zm.975-.15.152-.477-.126-.04-.13.027.104.49Zm.738-.115.152-.476-.207-.067-.19.107.245.436Zm.379.184.5-.014-.008-.285-.249-.138-.243.437Zm-.429.714.368.338.008-.01-.376-.328Zm-1.524.614.155.475.008-.003-.163-.472Zm-3.588.878.178.467-.178-.467Zm-2.752 1.397-.271-.42-.095.06-.059.097.425.263Zm-4.49-7.394-.026.004.153.988.026-.004-.153-.988Zm.398.139-.698-.675-.695.72.698.674.695-.72Zm-.56-.198.116-.476-.972-.235-.116.476.972.235Zm-.051-.21.478-.397-.639-.769-.478.398.639.769Zm.635-.629-.014.036.002-.004.046-.068-.806-.59a1.154 1.154 0 0 0-.18.32l.952.306Zm-.027.033c.217-.204.598-.445 1.18-.713.575-.266 1.318-.546 2.232-.838l-.305-.953c-.937.3-1.721.594-2.346.883-.618.285-1.113.58-1.445.893l.684.728Zm3.413-1.552 3.829-1.24-.308-.95-3.829 1.239.308.951Zm3.669-1.215c.384.005 1.212-.118 2.42-.34l-.181-.984c-1.241.228-1.962.327-2.227.324l-.012 1Zm2.414-.34c1.011-.174 1.62-.153 1.922-.038l.354-.936c-.576-.217-1.423-.187-2.445-.011l.169.986Zm1.605-.43.02.132.989-.153-.021-.131-.988.152Zm.025-.046c-.015.071-.064.2-.18.398l.861.507c.141-.238.251-.475.298-.701l-.979-.204Zm.24.151c-.477.01-.837.277-1.077.663l.85.527c.106-.17.187-.189.248-.19l-.021-1Zm-1.099.702a3.275 3.275 0 0 1-.283.438l.807.591c.156-.213.283-.408.369-.58l-.893-.45Zm.167.236c-.212-.02-.495.007-.816.057l.153.988c.312-.048.491-.057.571-.05l.092-.995Zm-.994.12a.412.412 0 0 1 .081-.035l-.026.004a2.553 2.553 0 0 1-.203.02c-.19.013-.465.021-.83.024l.008 1c.372-.003.67-.011.889-.026a3.46 3.46 0 0 0 .289-.03.835.835 0 0 0 .301-.096l-.509-.86Zm-.763.06c-.373-.173-.79-.166-1.204-.059l.25.968c.278-.071.44-.046.532-.003l.422-.907Zm-1.212-.056-.88.244.267.963.88-.244-.267-.963Zm-.864.24c-.276.066-.672.247-1.151.5l.466.885c.485-.256.78-.38.92-.414l-.235-.972Zm-1.055.461c-.117.034-.286.11-.472.2-.2.096-.46.228-.779.395l.465.885c.314-.164.563-.29.748-.38a5.11 5.11 0 0 1 .312-.138l-.274-.962Zm-1.252.596c-.385.203-.728.303-1.034.323l.063.998c.477-.03.958-.183 1.439-.437l-.468-.884Zm-1.366.479c-.062.065-.248.191-.647.359l.388.922c.411-.174.769-.366.986-.595l-.727-.686Zm-.647.359c-.422.177-.784.38-1.014.63l.737.676c.078-.085.275-.22.665-.384l-.388-.922Zm-.632.469-.596-.016-.027 1 .596.015.027-1Zm-.955.122-1.011.966.691.723 1.011-.966-.691-.723Zm-.308.978a5.853 5.853 0 0 0-.379-.354l-.651.759c.114.098.219.196.315.294l.715-.699Zm3.503 6.64-.422.065.153.989.421-.066-.152-.988Zm-.718.226c-.347.387-.796.629-1.376.718l.153.989c.79-.123 1.455-.467 1.968-1.04l-.745-.667Zm-1.064.771a3.282 3.282 0 0 0-.309-.143l-.377.926c.083.034.154.067.215.1l.471-.883Zm-.22-.096c-.46-.307-.609-.528-.64-.64l-.963.268c.132.475.545.868 1.048 1.204l.555-.832Zm-.83-.1 2.113-1.513-.582-.813-2.114 1.514.583.813Zm2.263-1.684.045-.083a.126.126 0 0 0 .01-.017c.003-.003 0 .002-.007.011l-.807-.59c-.04.055-.086.139-.123.208l.882.47Zm-.369.116.298.008.026-1-.298-.008-.026 1Zm.551-.053 1.791-.979-.479-.877-1.792.978.48.878Zm1.628-.924c.298-.046.714-.15 1.234-.303l-.282-.96c-.512.151-.875.24-1.105.275l.153.989Zm1.234-.303c.512-.15.876-.239 1.105-.274l-.153-.988c-.297.046-.713.15-1.234.303l.282.96Zm1.211-.302c.09-.036.351-.095.845-.166a45.417 45.417 0 0 1 1.925-.225l-.099-.995a46.13 46.13 0 0 0-1.97.23c-.475.07-.85.14-1.065.224l.364.932Zm2.771-.39a9.642 9.642 0 0 0 1.029-.16l-.208-.978c-.295.063-.602.11-.922.142l.101.995Zm.772-.173c.191.061.388.075.584.044l-.153-.988a.27.27 0 0 1-.126-.008l-.305.952Zm.584.044c.194-.03.378-.1.552-.198l-.49-.872a.652.652 0 0 1-.215.082l.153.988Zm.154-.158.006.002.018.008a4.444 4.444 0 0 1 .265.136l.486-.875a2.882 2.882 0 0 0-.47-.223l-.305.952Zm.032-.277c-.001-.048.01-.072.006-.06a.468.468 0 0 1-.039.074c-.05.083-.137.2-.273.356l.753.658a3.56 3.56 0 0 0 .377-.5c.083-.136.182-.336.176-.557l-1 .029Zm-.298.361c.038-.041.07-.058.057-.05l-.048.025a4.113 4.113 0 0 1-.266.116 24.33 24.33 0 0 1-1.062.388l.327.945c.472-.163.843-.299 1.109-.406.132-.053.245-.102.334-.146a1.63 1.63 0 0 0 .131-.071.714.714 0 0 0 .155-.125l-.737-.676Zm-1.311.476c-.958.313-1.497.468-1.676.496l.153.988c.278-.043.908-.23 1.834-.533l-.311-.95Zm-1.676.496c-.496.076-.902.146-1.217.209-.305.06-.555.12-.718.182l.357.934a4.21 4.21 0 0 1 .556-.135c.295-.06.686-.126 1.175-.202l-.153-.988Zm-1.935.391c-.984.376-1.932.857-2.844 1.444l.541.84c.855-.55 1.742-1 2.66-1.35l-.357-.934Zm-2.998 1.6-.13.21.85.527.129-.21-.849-.526Zm13.196 9.353-.49-.098-.09.456.447.123.133-.481Zm.121-.613-.337-.368-.121.11-.032.161.49.097Zm.213-.195.338.37.154-.142.008-.208-.5-.02Zm.044-1.113-.314-.389-.177.143-.009.227.5.02Zm.456-.367.314.39.03-.025.026-.03-.37-.335Zm1.221-1.35.371.336.048-.053.032-.065-.451-.217Zm1.244-1.73.389.314.059-.072.028-.089-.476-.152Zm.923-1.707.432.252.005-.01-.437-.242Zm.718-1.811-.465-.182-.019.047-.009.05.493.085Zm.771-5.139-.495-.072-.005.036v.037h.5Zm-1.129-4.682.467-.18h-.001l-.466.18Zm-.421-1.5.494-.076-.018-.117-.068-.096-.408.289Zm-1.052-2.266.469-.173-.018-.05-.029-.045-.422.268Zm-2.214-3.327-.402.297.402-.297Zm-2.711-2.873-.295.403.295-.403Zm-2.977-1.105.103-.489-.103.49Zm-2.28-1.131-.438.24.017.031.021.028.4-.3Zm-.15-.274-.484-.128-.051.194.097.175.438-.24Zm.119-.45-.352-.355-.097.096-.034.131.483.128Zm.371-.57-.344-.363-.086.082-.041.111.471.17Zm.306-.29.344.363.005-.005-.349-.358Zm.775-1.091-.172-.47-.244.09-.067.251.483.129Zm.331-.133.194.461.163-.069.084-.156-.441-.236Zm.516-.322-.045.498h.007l.038-.498Zm3.003.399.25-.433-.075-.044-.086-.015-.089.492Zm1.511.872.354-.353-.047-.047-.057-.032-.25.432Zm1.916 1.917.485-.119-.033-.136-.099-.098-.353.353Zm.799.983.479-.146-.057-.186-.168-.1-.254.432Zm.496.76-.398.302.044.058.058.043.296-.403Zm1.866 3.516-.461.195.054.127.111.081.296-.403Zm1.219 1.78.46-.195-.46.196Zm.999 1.924.482-.133-.029-.106-.071-.084-.382.323Zm1.35 4.891.476.153.046-.142-.04-.144-.482.133Zm-.029 1.732.49.102.015-.073-.007-.075-.498.046Zm-.237 1.952-.499-.038v.004l.499.034Zm-.295 1.584-.457-.204-.003.007.46.197Zm-.397.925-.459-.197-.004.008.463.189Zm-.434 1.902.428.258.045-.076.017-.086-.49-.096Zm-1.245 2.594-.459-.2-.01.024-.007.023.476.153Zm-1.496 2.714-.407-.292-.001.002.408.29Zm-1.75 2.645.373.333.045-.051.031-.061-.449-.221Zm-.391.438.146.478.134-.04.093-.105-.373-.333Zm-.543.327.076.494.124-.019.1-.075-.3-.4Zm-.973.34-.133.481.229.063.193-.137-.289-.408Zm-.073-.06.121-.612-.981-.194-.121.612.981.195Zm-.032-.34.213-.195-.676-.737-.212.195.675.737Zm.375-.544.044-1.113-1-.04-.043 1.114.999.039Zm-.142-.743.456-.368-.628-.778-.456.367.628.779Zm.512-.421 1.222-1.35-.741-.67-1.222 1.348.741.672Zm1.302-1.468c.12-.25.495-.782 1.182-1.634l-.778-.627c-.672.833-1.126 1.455-1.305 1.827l.901.434Zm1.269-1.795.001-.003a.053.053 0 0 0 .003-.01l.013-.03.048-.104c.042-.086.1-.198.175-.337.15-.277.362-.651.639-1.124l-.864-.505a44.31 44.31 0 0 0-.655 1.154c-.148.275-.265.507-.312.654l.952.305Zm.884-1.617c.407-.732.676-1.393.774-1.97l-.986-.168c-.071.42-.281.966-.662 1.652l.874.486Zm.747-1.873c.546-1.4.807-3.18.805-5.32h-1c.001 2.07-.252 3.715-.736 4.957l.931.363Zm.8-5.247a5.283 5.283 0 0 0-.006-1.578l-.988.153c.065.424.067.85.004 1.28l.99.145Zm-.006-1.578c-.037-.237-.161-.643-.345-1.177-.19-.55-.459-1.277-.806-2.18l-.934.36c.345.897.61 1.612.794 2.146.19.55.282.871.303 1.004l.988-.153Zm-1.152-3.357a6.817 6.817 0 0 1-.393-1.396l-.988.152c.077.5.229 1.036.449 1.604l.932-.36Zm-.479-1.61c-.258-.362-.59-1.063-.991-2.15l-.938.347c.404 1.093.773 1.902 1.113 2.382l.816-.578Zm-1.038-2.244c-1.021-1.605-1.768-2.728-2.235-3.357l-.803.596c.443.597 1.172 1.692 2.194 3.298l.844-.537Zm-2.234-3.357c-.972-1.313-1.91-2.314-2.818-2.978l-.59.806c.795.583 1.665 1.498 2.604 2.767l.804-.595Zm-2.818-2.978c-.696-.51-1.773-.896-3.169-1.19l-.207.978c1.357.286 2.264.637 2.786 1.018l.59-.806Zm-3.169-1.191c-1.101-.231-1.709-.575-1.982-.942l-.801.6c.497.665 1.409 1.075 2.577 1.32l.206-.978Zm-1.945-.883-.15-.273-.876.48.15.274.876-.48Zm-.105.095.119-.45-.966-.256-.12.45.967.256Zm-.011-.223a2.04 2.04 0 0 0 .488-.755l-.941-.34a1.033 1.033 0 0 1-.252.385l.705.71Zm.362-.562.306-.29-.688-.726-.306.29.688.726Zm.311-.295c.451-.44.794-.884.91-1.321l-.967-.257c-.043.163-.217.447-.642.862l.699.716Zm.598-.98c.096-.035.214-.082.353-.14l-.388-.922a7.246 7.246 0 0 1-.309.123l.344.94Zm.6-.366c.034-.064.055-.074.047-.069a.059.059 0 0 1-.018.008h.001l.091-.995a.96.96 0 0 0-.604.14 1.16 1.16 0 0 0-.4.445l.883.47Zm.037-.06c.909.071 1.893.202 2.952.393l.178-.984a30.626 30.626 0 0 0-3.053-.406l-.077.997Zm2.791.334 1.511.872.5-.865-1.511-.873-.5.866Zm1.408.793 1.915 1.916.707-.706-1.915-1.917-.707.707Zm1.783 1.682c.137.559.509.986 1.032 1.294l.507-.861c-.348-.205-.509-.432-.568-.671l-.971.238Zm.807 1.01c.041.134.128.28.211.407.092.14.214.311.365.51l.796-.606a8.148 8.148 0 0 1-.324-.45c-.082-.127-.096-.168-.091-.153l-.957.291Zm.678 1.017c.021.015.09.081.205.25.109.158.239.377.389.66.301.568.67 1.365 1.107 2.398l.921-.39c-.442-1.044-.823-1.872-1.144-2.476a8.148 8.148 0 0 0-.448-.758c-.131-.192-.277-.373-.439-.49l-.591.806Zm1.866 3.516c.34.249.702.745 1.055 1.574l.92-.392c-.38-.893-.831-1.584-1.384-1.989l-.591.807Zm1.055 1.574c.42.985.779 1.697 1.078 2.05l.763-.646c-.186-.22-.492-.79-.921-1.796l-.92.392Zm.977 1.86 1.35 4.891.964-.266-1.35-4.89-.964.265Zm1.356 4.606c-.071.221-.099.5-.104.804-.005.313.014.69.053 1.125l.996-.09a9.856 9.856 0 0 1-.049-1.018c.005-.273.03-.435.056-.516l-.952-.305Zm-.042 1.782c-.1.478-.181 1.154-.247 2.016l.997.076c.065-.849.143-1.474.229-1.888l-.979-.204Zm-.247 2.02c-.049.716-.143 1.17-.253 1.414l.913.408c.185-.413.287-1.015.337-1.754l-.997-.068Zm-.256 1.42-.396.926.919.394.396-.925-.919-.394Zm-.4.934c-.057.14-.121.388-.192.697-.074.324-.164.757-.27 1.297l.981.193c.106-.536.194-.957.264-1.267.075-.325.122-.49.143-.543l-.926-.377Zm-.4 1.833c-.305.508-.731 1.4-1.275 2.653l.918.398c.543-1.254.947-2.091 1.214-2.535l-.857-.516Zm-1.292 2.7c-.22.686-.686 1.541-1.427 2.574l.813.583c.768-1.071 1.301-2.025 1.566-2.853l-.952-.305Zm-1.428 2.576c-.967 1.363-1.577 2.28-1.791 2.714l.898.442c.17-.346.725-1.191 1.708-2.577l-.815-.579Zm-1.715 2.602-.391.438.746.666.391-.438-.746-.666Zm-.164.293c-.213.065-.456.224-.697.405l.6.8c.112-.084.204-.146.275-.19.035-.02.063-.036.084-.046l.03-.013-.292-.956Zm-.473.31c-.462.072-.871.203-1.186.427l.578.815c.139-.098.378-.194.76-.253l-.152-.988Zm-.764.352-.564-.155-.266.963.564.156.266-.964Z" fill="#FC4545" fill-opacity=".58"/></svg>