<svg width="840" height="395" fill="none" xmlns="http://www.w3.org/2000/svg"><path fill-rule="evenodd" clip-rule="evenodd" d="M840 0H0v304.755l814.329 87.673L840 395V0Zm-24.131 89.492c6.522 0 11.809-5.296 11.809-11.83 0-6.532-5.287-11.829-11.809-11.829-6.521 0-11.808 5.297-11.808 11.83s5.287 11.83 11.808 11.83Zm11.809 60.176c0 6.533-5.287 11.829-11.809 11.829-6.521 0-11.808-5.296-11.808-11.829s5.287-11.83 11.808-11.83c6.522 0 11.809 5.297 11.809 11.83Zm-11.809 83.835c6.522 0 11.809-5.297 11.809-11.83s-5.287-11.829-11.809-11.829c-6.521 0-11.808 5.296-11.808 11.829s5.287 11.83 11.808 11.83Zm11.809 60.176c0 6.533-5.287 11.829-11.809 11.829-6.521 0-11.808-5.296-11.808-11.829 0-6.534 5.287-11.83 11.808-11.83 6.522 0 11.809 5.296 11.809 11.83Zm-11.809 83.834c6.522 0 11.809-5.296 11.809-11.83 0-6.533-5.287-11.829-11.809-11.829-6.521 0-11.808 5.296-11.808 11.829 0 6.534 5.287 11.83 11.808 11.83Z" fill="#fff"/></svg>