<svg width="50" height="64" fill="none" xmlns="http://www.w3.org/2000/svg"><path d="m.531 11.176 1.102-.9 1.99.562 1.366-1.551 1.99.562 1.785-1.676 1.99.562 1.366-1.552 1.99.562 1.785-1.675 1.99.562.946-1.428 1.99.562 1.365-1.552 1.99.562 1.366-1.552 1.99.562 1.366-1.551 1.99.561 1.365-1.551 1.99.562 7.714 26.153-33.556 9.898-7.87-26.682Z" fill="#F2F2F2" fill-opacity=".3"/><path d="m.531 11.176 1.102-.9 1.99.562 1.366-1.551 1.99.562 1.785-1.676 1.99.562 1.366-1.552 1.99.562 1.785-1.675 1.99.562.946-1.428 1.99.562 1.365-1.552 1.99.562 1.366-1.552 1.99.562 1.366-1.551 1.99.561 1.365-1.551 1.99.562 7.714 26.153-33.556 9.898-7.87-26.682ZM49.5 53.53l-1.11.877-1.976-.517-1.38 1.507-1.976-.517-1.798 1.63-1.977-.517-1.379 1.508-1.977-.518-1.798 1.631-1.976-.518-.96 1.384-1.977-.518-1.379 1.508-1.976-.518-1.38 1.508-1.976-.518-1.379 1.508-1.976-.518-1.38 1.507-1.976-.517-7.393-25.064 33.556-9.898 7.542 25.57Z" fill="#F2F2F2" fill-opacity=".3"/><path d="m49.5 53.53-1.11.877-1.976-.517-1.38 1.507-1.976-.517-1.798 1.63-1.977-.517-1.379 1.508-1.977-.518-1.798 1.631-1.976-.518-.96 1.384-1.977-.518-1.379 1.508-1.976-.518-1.38 1.508-1.976-.518-1.379 1.508-1.976-.518-1.38 1.507-1.976-.517-7.393-25.064 33.556-9.898 7.542 25.57Z" fill="#F2F2F2" fill-opacity=".3"/></svg>