<svg width="13" height="25" fill="none" xmlns="http://www.w3.org/2000/svg"><path d="M7.083 13.373H5.111c-.548 1.14-.823 2.141-.823 3.007 0 .843.103 1.629.309 2.358.206.728.434 1.24.686 1.537h1.766c.617-1.07 1.16-2.311 1.16-3.655 0-1.367-.531-2.427-1.126-3.247Zm-.225-3.986 1.736.023c1.303.66 1.859 1.64 2.567 2.938.732 1.276.905 2.688.905 4.032 0 3.212-1.087 5.763-3.165 7.858H3.534C1.457 22.31.589 20.863.204 17.873c-.216-1.669-.022-4.01.321-5.354.366-1.344.567-2.34.932-3.229.366-.888.778-2.025 1.357-3.502L5.283.321h3.549l-3.72 9.521c.845-.524.946-.455 1.746-.455Z" fill="#FC4545" fill-opacity=".8"/></svg>