<svg width="14" height="25" fill="none" xmlns="http://www.w3.org/2000/svg"><path d="M9.19 24.465H4.888c-1.236-.526-2.278-1.396-3.125-2.609s-1.27-2.598-1.27-4.154c0-2.518.973-4.418 2.918-5.7v-.137c-1.556-1.327-2.334-2.987-2.334-4.978 0-1.51.423-2.838 1.27-3.983.87-1.167 1.9-1.991 3.09-2.472h3.169c1.19.481 2.197 1.282 3.021 2.404.847 1.121 1.27 2.437 1.27 3.948 0 1.991-.79 3.662-2.369 5.013v.137c1.969 1.305 2.953 3.181 2.953 5.63a7.362 7.362 0 0 1-1.304 4.223c-.847 1.26-1.843 2.152-2.987 2.678Zm-2.723-10.23c-.801.663-1.202 1.636-1.202 2.918 0 .709.126 1.384.378 2.025.275.641.572 1.076.893 1.305h.903c.32-.23.606-.664.858-1.305a5.08 5.08 0 0 0 .412-2.026c0-1.281-.4-2.254-1.202-2.918h-1.04Zm.206-9.683c-.32.23-.607.607-.858 1.133a3.709 3.709 0 0 0-.378 1.683c0 1.144.4 2.094 1.202 2.85h.697c.8-.756 1.201-1.706 1.201-2.85a3.72 3.72 0 0 0-.377-1.683c-.252-.526-.538-.904-.859-1.133h-.628Z" fill="#FC4545" fill-opacity=".8"/></svg>