<svg width="1266" height="7625" fill="none" xmlns="http://www.w3.org/2000/svg"><path d="m768.452 5974.82-31.588-40.11 48.741-7.98-17.153 48.09Zm62.153-11.46-34.209-37.9 48.096-11.23-13.887 49.13Zm62.988-15.79-36.383-35.82 47.351-14.04-10.968 49.86Zm66.814-25.17-41.727-29.42 44.434-21.56-2.707 50.98Zm61.203-34.37-45.092-23.95 41.372-26.97 3.72 50.92Zm56.67-47.24-49.8-11.25 17.21-17.66 15.61-19.24 16.98 48.15Z" fill="#C7FE84"/><path fill-rule="evenodd" clip-rule="evenodd" d="M1003.71 12.509C876.735-4.645 729.355-3 558.365 12.504 425.728 24.53 351.893 45.894 295.888 62.099c-16.22 4.694-30.944 8.954-45.168 12.43-26.178 6.396-47.432 16.465-68.418 26.407l-.001.001c-4.538 2.149-9.063 4.293-13.622 6.392-25.663 11.816-52.522 22.285-89.171 24.773a1 1 0 0 0 .135 1.996c37-2.512 64.114-13.093 89.872-24.952 4.596-2.116 9.145-4.271 13.697-6.427h.001c20.976-9.936 42.019-19.904 67.982-26.248 14.289-3.491 29.055-7.763 45.305-12.465 56.001-16.203 129.62-37.503 262.046-49.51C729.459-1.001 876.674-2.636 1003.44 14.49c87.82 11.865 146.5 32.771 182.77 58.89 36.21 26.084 50.06 57.352 48.33 90.129-1.73 32.856-19.12 67.391-45.77 99.88-26.63 32.473-62.43 62.813-100.79 87.267-41.37 26.364-271.424 155.964-311.187 176.454-24.172 12.457-60.172 29.482-98.346 47.485-51.313 24.199-113.945 52.49-182.745 81.985-52.992 22.718-81.971 32.073-119.138 44.072h-.001c-15.022 4.85-31.382 10.131-51.205 16.901-55.313 18.89-100.367 36.654-144.798 63.087-59.791 35.571-99.704 73.2-131.527 128.863-18.1 31.657-37.546 93.766-45.384 164.326-7.839 70.58-4.085 149.77 24.368 215.57 29.379 67.93 80.421 125.35 128.922 168.43 48.507 43.09 94.533 71.88 113.965 82.55 98.462 54.04 204.548 91.22 272.244 109.09 39.854 10.52 138.843 27.4 223.987 30.59 32.458 1.22 62.973.45 87.454-3.45-1.25 3.5-2.418 7.11-3.486 10.82-14.668 50.91-10.636 120.3 56.178 170.87 66.43 50.28 109.979 76.86 142.839 96.77l1.9 1.16c31.81 19.28 53.49 32.41 76.64 55.48 135.67 135.16 127.49 339.98 19.93 436.04-22.86 20.42-54.85 36.35-89.64 48.18-14.94 5.08-30.38 9.39-45.82 12.98-25.456-24.98-58.575-34.02-89.36-33.58-33.264.46-63.991 11.98-79.569 26.62l-.078.08-.06.08c-1.703 2.48-2.405 4.89-1.989 7.19.414 2.3 1.901 4.27 4.139 5.94 4.439 3.31 12.201 5.71 22.298 7.26 20.266 3.11 50.59 2.86 84.538-1.11a556.579 556.579 0 0 0 59.461-10.29c1.78 1.78 3.52 3.64 5.21 5.58 25.64 29.34 41.65 77.72 35.36 153.36-6.29 75.65-34.87 178.47-98.283 316.54-54.731 119.16-174.291 164.82-286.549 179.38-112.237 14.55-216.886-2.05-241.307-7.12l-.037-.01-.038-.01c-18.895-2.45-35.963-5.41-52.089-8.31-2.085-.37-4.155-.75-6.211-1.12-13.838-2.49-27.057-4.88-40.212-6.75-30.242-4.31-60.187-5.95-96.818-.13-18.66 2.97-39.472 9.43-58.325 18.36-18.841 8.92-35.804 20.35-46.695 33.3-38.682 45.99-67.915 96.04-59.896 174.9 1.36 29.17 16.51 73.27 40.974 111.42 19.707 30.73 45.583 57.78 75.365 69.98a314.278 314.278 0 0 0-13.305 15.39c-18.705 23.07-30.496 41.68-40.664 74.33-10.146 32.57-13.708 52.44-14.96 84.75l-.001.02v.02c0 61.98 19.477 110.77 51.851 149.96 32.356 39.18 77.556 68.73 128.942 92.33 51.389 23.6 109.024 41.27 166.297 56.67 23.635 6.35 47.192 12.32 70.227 18.15h.03c32.821 8.31 64.583 16.35 93.998 24.87 24.394 7.07 50.363 14.25 77.323 21.72h.014c62.718 17.36 130.797 36.21 196.866 58.45 94.46 31.8 184.663 70.5 249.033 121.63 70.39 65.5 103.95 176.29 108.65 290.97 4.69 114.68-19.48 232.98-64.25 313.29-83.61 149.94-259.418 215.45-480.108 179.5-26.054-4.25-52.889-9.05-80.212-13.94h-.006c-82.808-14.82-170.095-30.43-253.675-33.8-111.18-4.47-216.054 12.72-295.363 82.47-27.84 24.48-52.51 67.92-67.669 115.25-14.91 46.56-20.677 97.07-11.082 137.25l-.042.01.534 1.99 6.455 24.01.005.02.005.02c16.429 53.1 41.226 102.72 82.566 144.1 41.343 41.39 99.172 74.47 181.569 94.57 70.921 17.31 161.974 6.01 258.101-9.55 15.086-2.44 30.299-4.99 45.582-7.54l.292-.05c82.093-13.75 166.189-27.83 243.522-27.83 91.876 0 145.875 9.87 180.836 24.67 34.9 14.77 50.9 34.48 66.74 54.45 6.99 8.81 12.1 22.92 14.29 40.09 2.19 17.16 1.46 37.27-3.16 58.01-9.23 41.47-33.98 85.33-81.8 112.91-100.843 58.16-199.075 78.38-372.679 94.37-68.987 6.36-117.962 2.68-165.072-4.12-16.2-2.33-32.203-5.05-48.734-7.85h-.005c-31.509-5.34-64.94-11-105.322-15.03-52.692-5.25-100.681-7.16-141.31 2.49-40.688 9.67-74 30.95-97.271 72.02-46.526 82.1-21.39 205.95 62.178 328.05l.018.03.02.03c74.637 95.17 142.309 132.25 246.082 188.76 108.746 59.21 197.78 66.74 267.839 72.66 23.306 1.97 44.512 3.76 63.645 7.22 48.189 8.71 94.039 16.77 137.717 24.44l.265.05c43.569 7.65 84.975 14.92 124.383 22.09 78.846 14.34 154.636 43.08 214.696 86.47 29.52 21.33 51.87 58.72 64.69 96.72 6.4 18.99 10.42 38.1 11.76 55.37 1.34 17.29 0 32.67-4.23 44.26-17.17 46.99-50.31 97.64-114.15 97.64-21.59 0-36.57-2.47-51.53-4.93-7.36-1.21-14.7-2.41-22.82-3.33-24.59-2.77-55.87-2.76-115.083 8.28-20.293 3.78-41.097 7.94-62.269 12.17-102.349 20.48-213.284 42.67-316.481 31.89-62.309-6.5-105.073-16.01-135.572-24.36-12.518-3.43-22.97-6.66-31.875-9.41-1.948-.6-3.822-1.18-5.628-1.73-10.037-3.08-18.004-5.38-24.739-6.33-3.962-.56-7.925-1.15-11.843-1.75-13.552-2.04-26.575-4.01-37.222-4.01h-.013c-4.57 0-9.21 0-15.208 1.02-5.496.93-7.386 1.66-12.176 3.5h-.004l-1.421.55c-1.074.33-2.13.9-3.111 1.45-.225.13-.446.26-.664.38-.772.45-1.501.87-2.234 1.21-5.475 2.55-10.837 6.26-14.775 10.7-3.45 3.89-5.861 8.41-6.21 13.24-3.934 6.22-7.558 15.37-5.383 27.24.908 4.95.387 10.34-.591 16.38-.306 1.89-.657 3.84-1.02 5.85-.788 4.39-1.63 9.07-2.175 14.02-1.604 14.54-.686 31.66 11.273 52.17 4.588 7.87 5.726 17.19 4.45 27.4-1.278 10.21-4.966 21.25-9.955 32.49-7.86 17.7-18.878 35.75-28.602 51.68l-.018.03c-2.625 4.3-5.156 8.44-7.505 12.39-3.352 5.62-7.467 11.66-11.92 18.2-24.663 36.2-59.692 87.62-32.789 168.13 15.852 47.43 41.481 82 77.687 106.45 36.185 24.43 82.862 38.71 140.739 45.72 57.939 7.02 123.136-.5 183.453-10.07 16.814-2.66 33.241-5.48 49.026-8.2h.014c40.914-7.03 77.518-13.32 105.386-14.22l-.064-2c-28.017.91-64.84 7.23-105.821 14.28l-.064.01c-15.738 2.7-32.089 5.51-48.79 8.16-60.298 9.56-125.258 17.04-182.9 10.06-57.703-6.99-104.035-21.21-139.859-45.4-35.803-24.18-61.182-58.36-76.91-105.43-26.564-79.49 7.829-130.03 32.473-166.24 4.484-6.59 8.645-12.7 12.057-18.43 2.316-3.89 4.819-7.99 7.422-12.25l.051-.08c9.731-15.94 20.843-34.14 28.762-51.98 5.029-11.33 8.8-22.57 10.111-33.05 1.312-10.5.169-20.29-4.706-28.65-11.697-20.06-12.581-36.73-11.013-50.96.537-4.88 1.358-9.44 2.141-13.79.366-2.03.724-4.02 1.04-5.97.984-6.07 1.558-11.75.584-17.06-1.77-9.66.474-17.36 3.528-23.09.489 4.63 1.961 8.42 4.288 11.64 2.599 3.6 6.223 6.44 10.59 8.98 8.668 5.05 21.2 10.65 34.875 11.16 13.486.5 37.749-.5 50.197-2.52 6.22-1.01 13.808-2.65 21.005-5.18 7.18-2.52 14.062-5.96 18.785-10.62 4.706-4.64 7.804-10.75 8.159-16.37.178-2.82-.336-5.54-1.726-7.89-1.396-2.35-3.634-4.24-6.779-5.44-11.769-4.48-24.061-7-45.556-11.39l-.837-.17c-9.728-1.99-17.359-3.79-23.177-5.17 7.093.75 14.753 1.91 22.655 3.1l.039.01c3.944.59 7.947 1.2 11.971 1.76 6.554.93 14.372 3.17 24.433 6.26 1.801.55 3.671 1.13 5.617 1.73 8.907 2.75 19.393 5.99 31.944 9.43 30.598 8.37 73.47 17.9 135.892 24.42 103.53 10.81 214.834-11.46 317.183-31.93l.065-.02c21.123-4.22 41.864-8.37 62.076-12.14 59.077-11 90.157-10.99 114.487-8.25 7.95.89 15.21 2.09 22.53 3.29 15.05 2.47 30.3 4.98 52.05 4.98 65.19 0 98.79-51.79 116.03-98.96 4.37-11.95 5.7-27.65 4.34-45.1-1.36-17.45-5.41-36.72-11.86-55.85-12.89-38.23-35.43-76.04-65.41-97.7-60.36-43.61-136.44-72.44-215.508-86.82-39.386-7.16-80.824-14.44-124.422-22.1l-.381-.07c-43.653-7.67-89.472-15.72-137.564-24.41-19.345-3.5-40.69-5.3-64.091-7.28h-.013c-70.019-5.92-158.445-13.4-266.78-72.39-103.746-56.49-171.089-93.41-245.444-188.21-83.417-121.89-108.014-244.84-62.07-325.92 22.964-40.52 55.776-61.5 95.993-71.05 40.277-9.57 87.974-7.69 140.65-2.44 40.325 4.01 73.624 9.66 105.089 14.99 16.55 2.8 32.593 5.52 48.885 7.87 47.235 6.82 96.37 10.51 165.541 4.14 173.675-16.01 272.264-36.25 373.495-94.63 48.4-27.92 73.42-72.31 82.75-114.21 4.67-20.96 5.42-41.31 3.2-58.7-2.22-17.37-7.41-31.88-14.71-41.08-15.89-20.03-32.15-40.07-67.53-55.05-35.325-14.95-89.639-24.83-181.616-24.83-77.513 0-161.802 14.11-243.886 27.86h-.008c-15.371 2.58-30.665 5.14-45.822 7.59-96.193 15.57-186.844 26.77-257.307 9.58-82.104-20.04-139.587-52.96-180.628-94.04-41.04-41.08-65.7-90.38-82.064-143.27l-6.443-23.97h-.002c-10.149-40-4.536-91.01 10.558-138.14 15.096-47.14 39.615-90.2 67.085-114.36 78.74-69.25 182.985-86.43 293.962-81.97 83.427 3.36 170.514 18.94 253.288 33.75h.009c27.352 4.89 54.232 9.7 80.354 13.96 221.204 36.04 398.02-29.58 482.17-180.5 45-80.7 69.21-199.39 64.5-314.34-4.7-114.93-38.34-226.37-109.31-292.38l-.03-.03-.03-.02c-64.65-51.36-155.139-90.16-249.665-121.99-66.125-22.26-134.298-41.13-197.04-58.5h-.026c-26.938-7.46-52.875-14.64-77.218-21.69-29.431-8.53-61.267-16.58-94.129-24.9-23.042-5.83-46.589-11.79-70.163-18.13-57.244-15.39-114.748-33.03-165.982-56.56-51.235-23.53-96.141-52.92-128.235-91.78-32.073-38.83-51.389-87.16-51.393-148.67 1.245-32.11 4.775-51.8 14.871-84.22 10.075-32.35 21.722-50.74 40.308-73.67a316.942 316.942 0 0 1 13.743-15.85c6.555 2.52 13.295 4.32 20.195 5.28 26.083 3.63 58.635 4.45 108.314-9.09 23.061-6.28 41.761-17.87 53.036-31.06 11.263-13.17 15.245-28.12 8.309-40.88l-.036-.06-.044-.06c-9.394-12.45-25.962-14.67-42.407-12.8-16.501 1.89-33.253 7.93-43.499 12.48-20.472 9.11-43.284 23.16-58.232 33.6-16.799 11.73-32.248 25.34-46.171 40.23-29.509-11.83-55.352-38.64-75.139-69.49-24.343-37.96-39.33-81.74-40.66-110.46l-.002-.03-.002-.03c-7.953-78.13 20.937-127.66 59.433-173.43 10.637-12.65 27.319-23.92 46.021-32.79 18.691-8.85 39.321-15.25 57.783-18.18 36.379-5.78 66.115-4.17 96.222.13 13.118 1.87 26.299 4.24 40.142 6.74h.015l.223.04c1.976.36 3.966.72 5.972 1.08 16.121 2.89 33.217 5.87 52.148 8.32 24.621 5.12 129.459 21.72 241.933 7.14 112.509-14.59 232.947-60.42 288.11-180.52 63.465-138.18 92.145-241.24 98.465-317.21 6.31-75.97-9.74-124.96-35.85-154.85-1.45-1.65-2.93-3.25-4.43-4.79 15.09-3.54 30.18-7.78 44.79-12.75 34.93-11.87 67.2-27.91 90.34-48.58 108.54-96.94 116.5-303.11-19.85-438.95-23.33-23.24-45.19-36.48-76.94-55.72l-1.99-1.21c-32.83-19.89-76.309-46.44-142.662-96.66-65.97-49.93-69.973-118.35-55.463-168.72 1.164-4.04 2.446-7.96 3.825-11.74 6.748-1.15 13.014-2.54 18.708-4.21 13.319-3.9 23.652-9.34 29.656-16.73 6.067-7.46 7.608-16.79 3.613-28.13-1.05-2.98-2.549-5.17-4.475-6.53-1.942-1.36-4.219-1.81-6.665-1.47-4.814.67-10.371 4.37-15.976 10.2-9.284 9.65-19.078 25.55-26.337 45.09-24.442 4.01-55.229 4.84-88.165 3.6-85.001-3.18-183.843-20.05-223.551-30.53-67.568-17.83-173.498-54.95-271.792-108.91-19.316-10.6-65.216-39.31-113.599-82.28-48.387-42.98-99.196-100.17-128.414-167.74-28.262-65.35-32.034-144.16-24.216-214.55 7.82-70.39 27.213-132.211 45.132-163.554 31.622-55.309 71.261-92.708 130.814-128.137 44.252-26.326 89.151-44.037 144.422-62.913 19.768-6.751 36.104-12.024 51.117-16.871 37.202-12.01 66.287-21.399 119.368-44.156 68.821-29.504 131.475-57.805 182.81-82.014 38.162-17.997 74.199-35.04 98.409-47.516 39.8-20.509 269.911-150.14 311.341-176.545 38.51-24.546 74.48-55.019 101.27-87.686 26.78-32.652 44.46-67.586 46.22-101.043 1.77-33.535-12.47-65.424-49.17-91.856-36.64-26.396-95.7-47.365-183.66-59.25ZM923.798 2477.33c30.015-.42 62.142 8.27 87.012 32.11a551.88 551.88 0 0 1-57.994 9.96c-33.857 3.97-63.983 4.19-84.002 1.12-10.045-1.54-17.384-3.88-21.405-6.88-1.991-1.49-3.073-3.06-3.367-4.69-.289-1.6.146-3.46 1.608-5.61 15.14-14.17 45.285-25.55 78.148-26.01ZM205.421 3554.56c-6.474-.9-12.813-2.56-18.995-4.88 13.691-14.57 28.85-27.88 45.307-39.37 14.884-10.4 37.582-24.38 57.899-33.41 10.148-4.51 26.691-10.47 42.913-12.32 16.252-1.85 31.811.45 40.538 11.95 6.334 11.73 2.85 25.75-8.107 38.56-10.966 12.82-29.289 24.23-52.042 30.43-49.404 13.46-81.683 12.63-107.513 9.04Zm669.574-1884.45c-5.294 1.55-11.099 2.86-17.34 3.96 7.138-18.83 16.609-34.07 25.497-43.32 5.522-5.74 10.682-9.02 14.809-9.6 2.023-.28 3.773.1 5.241 1.13 1.485 1.04 2.78 2.83 3.739 5.55 3.8 10.79 2.284 19.37-3.279 26.21-5.625 6.93-15.493 12.21-28.667 16.07ZM314.961 7014.78c5.824-.99 10.32-.99 14.887-.99.826 0 2.146.2 4.082.6 1.914.4 4.352.97 7.38 1.69l.876.21c5.97 1.42 14.043 3.35 24.559 5.5l.669.13 2.927.6c-2.666-.39-5.54-.79-8.64-1.2-22.618-3.01-35.88-3.15-44.463-2.2-6.825.76-10.704 2.22-13.849 3.39l-.697.27c-.566.21-1.113.4-1.655.58-3.072 1.03-6.48 2.53-9.602 4.17a32.986 32.986 0 0 1 2.747-3.22c2.525-2.61 5.361-4.74 7.529-5.57l1.458-.56c4.753-1.83 6.493-2.5 11.792-3.4Zm92.371 18.35c-.977-.94-2.073-2-4.17-3.09 3.376.98 6.539 2.03 9.664 3.22 2.769 1.06 4.63 2.67 5.771 4.59 1.147 1.94 1.608 4.25 1.45 6.75-.318 5.03-3.133 10.69-7.567 15.07-4.417 4.35-10.977 7.67-18.044 10.16-7.05 2.48-14.515 4.09-20.662 5.09-12.282 1.99-36.407 2.99-49.803 2.49-13.207-.49-25.407-5.91-33.943-10.88-4.235-2.47-7.6-5.14-9.974-8.43-2.363-3.27-3.786-7.21-4.046-12.3-.023-.44-.025-.87-.009-1.3 1.927-2.95 3.92-5.22 5.309-6.79.663-.76 1.188-1.35 1.503-1.79.443-.62 1.345-1.45 2.654-2.42.203-.15.415-.3.634-.46.183-.12.372-.25.565-.38-.246 1.17-.374 2.52-.432 3.9-.077 1.87-.025 3.88.077 5.72a98.818 98.818 0 0 0 .544 6.17l.049.4.014.1.004.03.001.01.991-.13-.991.13.004.03.006.03.981-.19-.98.19.001.01.004.02.014.06.022.1.03.12c.019.07.043.16.071.25.041.15.094.32.159.51.216.65.572 1.56 1.136 2.64 1.129 2.17 3.088 5.03 6.421 7.88.931.79 2.353 1.54 4.085 2.24 1.751.71 3.895 1.41 6.328 2.08 4.868 1.34 10.954 2.6 17.495 3.67 13.074 2.13 28.059 3.52 38.894 3.27 21.586-.51 31.442-3.53 38.089-7.14 6.546-3.56 11.014-7.17 14.364-12.89 1.793-3.07 1.767-6.51.685-9.6-1.078-3.08-3.222-5.88-5.8-7.75-.588-.42-1.076-.89-1.598-1.39Zm-127.452 3.16c-.791.89-1.827 2.05-2.957 3.48.967-2.75 2.641-5.39 4.815-7.84 2.797-3.16 6.383-5.95 10.231-8.18-1.696 1.86-3.204 3.9-4.19 5.83a44.952 44.952 0 0 0-3.501 2.31c-1.346.99-2.46 1.98-3.093 2.86-.254.36-.711.87-1.305 1.54Zm8.984-4.16c.118-.36.269-.75.451-1.14l.51-.3.329-.19c3.585-2.04 7.826-4.01 11.515-5.24.821-.27 1.63-.57 2.476-.89 3.128-1.17 6.757-2.53 13.313-3.26 8.353-.92 21.435-.81 43.979 2.19 22.584 3.01 32.962 5.38 38.285 7.4 3.621 1.37 4.763 2.48 5.997 3.68.573.56 1.166 1.13 2.037 1.76 2.261 1.64 4.149 4.11 5.087 6.79.934 2.67.908 5.48-.524 7.93-3.102 5.29-7.236 8.69-13.593 12.14-6.256 3.4-15.755 6.4-37.181 6.9-10.67.24-25.524-1.12-38.525-3.25-6.497-1.06-12.508-2.3-17.285-3.62-2.388-.66-4.453-1.33-6.108-2-1.675-.68-2.857-1.33-3.538-1.91-3.119-2.67-4.924-5.32-5.946-7.28-.511-.98-.827-1.8-1.014-2.35-.093-.28-.154-.5-.19-.64l-.015-.05-.023-.1-.002-.01-.005-.02-.008-.08-.047-.38c-.025-.21-.056-.47-.09-.78l-.069-.63c-.125-1.2-.275-2.84-.374-4.64-.1-1.79-.149-3.73-.075-5.52.074-1.8.272-3.38.633-4.51Z" fill="#FC4545"/><path d="M178.286 29.526C154.53 2.942 93.448 60.128 84.534 70.373c-17.546 20.163-34.235 40.889-41.187 67.172-3.128 11.823-5.583 25.218 7.218 31.761 15.338 7.839 34.892 5.587 50.953 1.783 35.295-8.359 79.873-30.155 76.174-72.522-1.763-20.197-11.37-39.828-34.054-39.828-31.152 0-65.388 19.996-88.997 38.384-22.848 17.796-39.62 56.408-13.078 78.637 12.018 10.065 28.356 12.158 43.48 12.229 27.574.128 56.708-4.333 78.977-21.91 17.357-13.701 31.517-33.96 25.306-56.897-6.017-22.222-22.198-44.106-39.913-58.426-11.276-9.115-24.753-15.987-38.639-20.041-12.713-3.711-33.35-8.867-46.282-2.972-21.456 9.781-3.899 60.698 2.463 72.013 20.023 35.614 56.027 56.707 94.432 67.512 9.29 2.614 51.981 14.833 60.294.424 3.78-6.552-3.944-19.575-6.794-25.136-5.967-11.644-15.089-20.295-24.967-28.703-21.694-18.468-46.464-24.299-74.985-23.354-17.89.593-34.572 1.772-48.32 14.776-11.677 11.047-13.726 26.28-16.22 41.017-2.424 14.322-7.878 40.814 1.02 54.605 7.423 11.506 25.081 3.891 34.053-.425 36.056-17.346 63.324-48.796 86.194-80.76 15.621-21.83 33.848-48.299 38.215-75.665.975-6.111 2.255-21.717-5.52-25.306-7.866-3.63-21.158 7.065-26.071 10.785Zm0 0c-20.695 15.67-39.354 34.8-56.897 53.84-13.518 14.672-26.188 30.122-34.817 48.235-2.847 5.976-17.536 36.017-5.775 40.932 7.958 3.326 19.236 1.396 27.175-.17 21.547-4.25 42.687-12.63 60.803-25.136 12.311-8.499 26.198-19.687 31.166-34.478 4.812-14.328-2.095-31.057-9.086-43.395-12.732-22.468-35.059-37.318-60.974-38.47-26.305-1.168-100.665 8.016-75.75 52.397 2.239 3.987 7.416 11.892 12.06 13.333 11.348 3.52 32.735.024 41.441-1.19 20.877-2.91 62.109-10.673 82.883-14.945 11.924-2.453 41.651-3.974 33.968-13.418-3.361-4.131-9.218-6.334-14.266-7.303-7.862-1.509-15.293-.357-23.099 1.019-20.903 3.684-41.709 7.853-62.672 11.21-17.484 2.799-35.045 5.382-52.65 7.303-2.506.273-4.551-.108-6.455 1.698-12.028 11.412-34.478 26.774-34.478 45.008 0 4.512.807 5.301 5.435 6.284 22.694 4.823 46.527 1.892 69.466.85" stroke="#FC4545" stroke-width="2" stroke-linecap="round"/></svg>