<svg width="329" height="329" fill="none" xmlns="http://www.w3.org/2000/svg"><path fill="#FFEC44" d="M0 89.296 238.854 0l89.296 238.854L89.296 328.15z"/><path d="m98.163 14.871 1.09-.914 1.997.535 1.345-1.57 1.997.536 1.763-1.7 1.997.536 1.345-1.57 1.997.535 1.763-1.699 1.997.536.927-1.44 1.997.534 1.346-1.57 1.996.536 1.346-1.57 1.996.535 1.346-1.57 1.996.536 1.346-1.57 1.997.535L139.81 31.1l-33.421 10.345-8.226-26.574Z" fill="#F2F2F2" fill-opacity=".3"/><path d="m98.163 14.871 1.09-.914 1.997.535 1.345-1.57 1.997.536 1.763-1.7 1.997.536 1.345-1.57 1.997.535 1.763-1.699 1.997.536.927-1.44 1.997.534 1.346-1.57 1.996.536 1.346-1.57 1.996.535 1.346-1.57 1.996.536 1.346-1.57 1.997.535L139.81 31.1l-33.421 10.345-8.226-26.574Zm49.53 41.696-1.098.893-1.983-.492-1.359 1.526-1.983-.491-1.776 1.655-1.984-.491-1.359 1.526-1.983-.492-1.776 1.655-1.984-.491-.941 1.396-1.983-.49-1.359 1.525-1.983-.491-1.359 1.526-1.983-.492-1.359 1.526-1.983-.491-1.359 1.526-1.983-.492-7.727-24.962 33.42-10.345 7.884 25.466Z" fill="#F2F2F2" fill-opacity=".3"/><path d="m147.693 56.567-1.098.893-1.983-.492-1.359 1.526-1.983-.491-1.776 1.655-1.984-.491-1.359 1.526-1.983-.492-1.776 1.655-1.984-.491-.941 1.396-1.983-.49-1.359 1.525-1.983-.491-1.359 1.526-1.983-.492-1.359 1.526-1.983-.491-1.359 1.526-1.983-.492-7.727-24.962 33.42-10.345 7.884 25.466Z" fill="#F2F2F2" fill-opacity=".3"/></svg>