<svg width="50" height="64" fill="none" xmlns="http://www.w3.org/2000/svg"><path d="m.163 10.871 1.09-.914 1.997.535 1.345-1.57 1.997.536 1.763-1.7 1.997.536 1.345-1.57 1.997.535 1.763-1.699 1.997.536.927-1.44 1.997.534 1.346-1.57 1.996.536 1.346-1.57 1.996.535 1.346-1.57 1.996.536L31.75.517l1.997.535L41.81 27.1 8.389 37.445.163 10.871Z" fill="#F2F2F2" fill-opacity=".3"/><path d="m.163 10.871 1.09-.914 1.997.535 1.345-1.57 1.997.536 1.763-1.7 1.997.536 1.345-1.57 1.997.535 1.763-1.699 1.997.536.927-1.44 1.997.534 1.346-1.57 1.996.536 1.346-1.57 1.996.535 1.346-1.57 1.996.536L31.75.517l1.997.535L41.81 27.1 8.389 37.445.163 10.871Z" fill="#F2F2F2" fill-opacity=".3"/><path d="m49.693 52.567-1.098.893-1.983-.492-1.359 1.526-1.983-.491-1.777 1.655-1.983-.491-1.358 1.526-1.984-.492-1.776 1.655-1.984-.491-.94 1.396-1.984-.49-1.359 1.525-1.983-.491-1.359 1.526-1.983-.492-1.359 1.526-1.983-.491-1.359 1.526-1.983-.492-7.727-24.962L41.809 27.1l7.884 25.466Z" fill="#F2F2F2" fill-opacity=".3"/><path d="m49.693 52.567-1.098.893-1.983-.492-1.359 1.526-1.983-.491-1.777 1.655-1.983-.491-1.358 1.526-1.984-.492-1.776 1.655-1.984-.491-.94 1.396-1.984-.49-1.359 1.525-1.983-.491-1.359 1.526-1.983-.492-1.359 1.526-1.983-.491-1.359 1.526-1.983-.492-7.727-24.962L41.809 27.1l7.884 25.466Z" fill="#F2F2F2" fill-opacity=".3"/></svg>